<?xml version="1.0" standalone="no"?>
<!DOCTYPE svg PUBLIC "-//W3C//DTD SVG 20010904//EN"
 "http://www.w3.org/TR/2001/REC-SVG-20010904/DTD/svg10.dtd">
<svg version="1.0" xmlns="http://www.w3.org/2000/svg"
 width="370.000000pt" height="469.000000pt" viewBox="0 0 370.000000 469.000000"
 preserveAspectRatio="xMidYMid meet">
<g transform="translate(0.000000,469.000000) scale(0.100000,-0.100000)"
fill="black" stroke="white" fill-opacity="1" stroke-opacity="1" stroke-width="0">
<path d="M0 2345 l0 -2345 1850 0 1850 0 0 2345 0 2345 -1850 0 -1850 0 0
-2345z m1048 2040 c19 -15 33 -21 37 -15 13 21 51 8 89 -29 34 -34 50 -41 120
-55 58 -11 109 -14 175 -10 64 4 97 2 107 -7 11 -9 14 -8 14 9 0 19 26 42 46
42 15 0 131 -127 154 -169 24 -44 27 -46 100 -63 41 -9 93 -21 115 -25 36 -7
43 -14 70 -66 25 -47 39 -62 83 -85 30 -15 66 -33 80 -41 37 -19 62 -42 62
-57 0 -15 35 -73 71 -117 14 -18 36 -50 49 -72 30 -51 41 -59 119 -95 60 -28
63 -31 58 -59 -5 -21 1 -38 23 -68 16 -21 31 -52 35 -68 3 -17 12 -55 20 -85
8 -30 19 -77 26 -104 7 -27 28 -72 47 -100 25 -38 32 -56 27 -76 -12 -46 -13
-104 -3 -239 9 -133 9 -134 50 -194 33 -51 39 -67 34 -95 -6 -38 -30 -62 -57
-55 -13 4 -16 0 -13 -14 4 -14 15 -19 45 -19 22 -1 45 -6 51 -12 6 -6 11 -35
11 -65 -1 -53 -16 -95 -55 -147 -39 -53 -59 -195 -46 -330 3 -33 1 -35 -29
-38 -30 -3 -44 -16 -25 -24 4 -1 17 -16 29 -31 22 -29 22 -29 3 -66 -10 -21
-36 -53 -57 -71 -61 -53 -72 -79 -79 -185 -6 -88 -9 -97 -35 -117 -21 -17 -25
-26 -17 -35 19 -23 -9 -71 -51 -84 -48 -16 -160 -105 -165 -132 -3 -12 -7 -41
-9 -65 -6 -54 -21 -72 -62 -72 -24 0 -34 -6 -43 -25 -11 -24 -16 -25 -88 -25
-104 0 -176 -33 -202 -94 -11 -22 -25 -46 -33 -51 -33 -25 -130 -57 -154 -51
-17 4 -30 1 -42 -11 -10 -10 -26 -17 -35 -15 -14 3 -17 -7 -20 -55 -2 -43 -7
-58 -18 -58 -9 0 -15 11 -16 30 -2 66 -3 70 -16 57 -9 -9 -8 -35 1 -111 13
-101 11 -121 -14 -121 -9 0 -16 19 -20 58 -8 73 -12 85 -26 76 -8 -5 -10 -36
-5 -104 4 -76 3 -100 -7 -109 -21 -17 -27 -3 -27 66 0 36 -4 63 -10 63 -7 0
-9 -24 -5 -68 6 -64 5 -66 -9 -37 l-15 30 3 -43 c3 -44 -13 -80 -32 -68 -5 3
-10 32 -10 64 1 86 -10 174 -22 186 -7 7 -10 -26 -10 -110 0 -67 -3 -123 -6
-127 -3 -3 -12 -3 -20 0 -11 4 -14 30 -15 112 0 58 -5 115 -10 126 -7 16 -8
14 -4 -10 2 -16 -2 -52 -9 -79 -11 -44 -14 -47 -21 -25 -4 13 -9 42 -9 64 -1
22 -3 65 -4 95 l-3 55 -24 -60 -24 -60 0 42 -1 43 -52 -21 c-66 -26 -83 -26
-155 6 -51 23 -69 26 -163 24 -97 -1 -109 -4 -159 -32 -43 -24 -67 -30 -115
-31 -59 -1 -61 0 -75 30 -15 36 -53 47 -125 38 -52 -7 -72 8 -81 62 -6 38 -3
45 24 73 17 18 31 38 31 45 0 32 -21 229 -35 331 -34 240 -44 275 -77 275 -21
0 -61 54 -56 76 2 9 12 22 23 28 11 6 22 12 24 13 2 2 -4 18 -14 37 -18 33
-18 35 1 67 29 50 43 128 48 278 l5 134 -30 35 c-17 19 -28 40 -25 48 3 8 1
14 -4 14 -6 0 -19 9 -30 20 -24 24 -19 59 16 107 19 26 24 44 24 95 0 35 -5
69 -11 75 -8 8 -8 21 1 49 15 45 7 138 -16 186 -8 18 -29 41 -45 50 -39 23
-41 83 -4 118 14 13 25 33 25 45 0 12 11 36 25 55 18 24 25 47 25 79 0 25 4
70 10 100 16 96 32 244 31 285 -2 40 -41 138 -68 168 -10 11 -13 28 -10 45 3
15 1 38 -4 52 -8 19 -5 29 10 45 47 50 70 171 74 382 1 54 -2 65 -31 100 -38
46 -38 48 -12 108 23 51 35 55 72 26 24 -19 26 -19 42 -1 9 9 16 31 16 48 0
34 12 47 52 57 21 5 34 0 61 -24 44 -38 78 -39 185 0 45 16 117 36 160 44 42
8 88 19 102 25 39 15 56 13 88 -14z"/>
<path d="M959 4382 c-1 -4 -1 -11 0 -15 1 -5 -12 -6 -29 -2 -21 5 -32 3 -35
-7 -4 -10 -17 -13 -43 -10 -30 3 -35 2 -24 -9 6 -7 12 -18 12 -23 0 -6 -7 -1
-15 10 -10 16 -22 20 -40 16 -23 -4 -26 -8 -21 -31 6 -23 5 -24 -7 -8 -20 25
-57 22 -57 -4 0 -16 -3 -19 -13 -11 -8 7 -31 7 -75 -3 -35 -7 -65 -9 -68 -4
-9 16 -34 10 -35 -8 -1 -10 -4 -3 -8 16 -3 19 -11 36 -18 38 -7 3 -9 -4 -6
-19 l6 -23 -20 24 c-24 29 -43 21 -43 -18 0 -16 -11 -40 -25 -55 -14 -15 -25
-28 -25 -29 0 -1 14 -3 31 -4 38 -3 57 -17 73 -57 l12 -30 45 45 c55 58 134
87 257 95 85 6 89 6 143 -25 65 -37 99 -40 99 -11 0 11 -6 29 -12 40 -11 17
-10 27 9 59 21 36 21 39 5 53 -18 15 -71 23 -73 10z"/>
<path d="M1065 4329 c-27 -30 -34 -44 -26 -52 6 -6 11 -21 11 -33 0 -20 8 -27
45 -36 6 -2 9 13 7 35 -2 20 0 37 5 37 5 0 9 -12 8 -27 0 -19 6 -29 19 -31 16
-3 18 0 12 25 l-6 28 16 -22 c19 -26 44 -30 44 -7 0 14 2 14 15 1 8 -8 45 -24
82 -36 52 -16 68 -18 74 -9 6 10 12 8 23 -7 14 -18 15 -18 16 -2 0 27 20 20
20 -8 0 -19 8 -28 37 -40 46 -19 59 -15 68 25 5 21 12 30 23 28 21 -4 28 28
11 49 -11 12 -30 14 -104 10 -93 -5 -216 13 -265 38 -14 7 -38 27 -54 44 -17
17 -33 31 -37 31 -4 0 -23 -18 -44 -41z"/>
<path d="M1610 4281 c-5 -11 -10 -33 -10 -49 0 -16 -7 -35 -15 -42 -17 -14
-20 -50 -5 -50 6 0 10 9 10 19 0 11 4 22 9 25 5 4 7 -3 4 -14 -5 -20 12 -50
28 -50 5 0 9 9 9 20 0 11 5 20 11 20 5 0 8 -4 4 -10 -3 -5 8 -16 25 -25 16 -8
30 -14 30 -12 0 2 18 -13 40 -35 39 -36 70 -49 70 -28 0 6 4 10 8 10 5 0 7
-14 4 -30 -4 -25 -1 -29 12 -24 14 5 15 2 6 -21 -10 -27 -6 -45 10 -45 5 0 7
8 4 18 -5 14 -3 14 11 -3 14 -17 17 -18 26 -5 5 8 8 25 6 38 -2 12 -1 22 2 22
13 0 33 -18 29 -26 -1 -5 6 -10 18 -12 14 -2 24 5 32 23 15 34 15 55 0 56 -45
2 -80 9 -128 26 -47 16 -59 26 -80 64 -26 46 -131 159 -149 159 -6 0 -15 -9
-21 -19z"/>
<path d="M289 4229 c-10 -19 -8 -20 10 -14 30 9 26 -4 -4 -15 -16 -6 -25 -17
-25 -32 0 -17 3 -19 12 -10 7 7 21 12 32 11 19 0 19 -1 -2 -10 -34 -13 -21
-34 19 -32 30 3 32 1 14 -9 -28 -16 -27 -14 -21 -35 5 -15 14 -19 39 -16 l32
3 -33 -11 c-26 -8 -33 -15 -30 -32 2 -13 12 -23 27 -27 l24 -5 -27 -12 c-27
-13 -37 -53 -13 -53 7 0 3 -8 -8 -16 -13 -11 -16 -18 -8 -21 10 -3 10 -9 0
-25 -9 -16 -9 -22 0 -25 10 -4 9 -10 -2 -26 -23 -33 -18 -47 16 -47 17 0 28
-4 24 -10 -3 -5 -12 -7 -20 -3 -16 5 -45 -13 -45 -28 0 -5 11 -9 25 -9 14 0
25 -4 25 -10 0 -5 -7 -7 -15 -4 -18 7 -45 -13 -45 -33 0 -8 -12 -24 -26 -36
-28 -24 -25 -60 5 -55 9 1 38 -6 64 -16 51 -19 91 -16 101 9 3 8 -5 34 -17 58
-20 39 -22 55 -22 217 0 185 6 230 30 230 23 0 37 45 23 75 -8 19 -19 25 -42
25 -37 0 -46 6 -69 43 -21 32 -33 34 -48 6z"/>
<path d="M743 4239 c-79 -10 -148 -40 -195 -86 -20 -19 -46 -40 -59 -47 -13
-6 -36 -29 -51 -51 -26 -37 -28 -49 -31 -145 -4 -136 6 -246 25 -268 24 -27
29 -64 11 -84 -14 -16 -14 -19 1 -33 21 -21 20 -32 -3 -76 -14 -27 -18 -50
-15 -90 5 -66 13 -119 19 -119 3 0 26 13 52 29 53 32 189 88 298 121 39 12 89
29 112 38 l43 17 -6 122 c-7 119 -6 122 20 167 21 35 39 51 89 75 78 38 161
60 255 68 l72 6 66 -69 c66 -69 107 -139 119 -208 8 -39 19 -44 50 -22 44 31
167 48 316 43 l143 -4 19 -36 c19 -36 42 -48 49 -26 2 7 17 13 33 15 66 6 115
17 115 25 0 4 -17 13 -37 18 -21 6 -55 22 -76 37 -31 21 -38 31 -34 50 2 14 0
27 -4 30 -5 3 -9 13 -9 23 0 26 -87 103 -140 125 -25 10 -53 22 -62 27 -10 5
-31 9 -47 9 -32 0 -61 30 -61 62 0 9 -16 30 -36 45 -20 15 -51 40 -69 55 -22
19 -43 27 -66 27 -41 -1 -89 16 -89 32 0 6 -8 1 -19 -12 l-18 -23 -49 18 c-27
11 -56 25 -64 32 -8 7 -28 15 -45 19 -16 4 -59 16 -94 27 -62 20 -66 20 -118
4 -29 -10 -62 -14 -73 -11 -10 3 -36 1 -57 -5 -36 -11 -43 -10 -100 24 -64 38
-75 39 -180 25z"/>
<path d="M2005 3996 c-15 -31 -27 -42 -47 -44 -34 -4 -36 -20 -5 -31 18 -7 23
-4 30 15 12 33 28 30 21 -4 -4 -18 -1 -32 9 -40 12 -10 16 -7 23 20 l8 33 3
-37 c5 -44 61 -96 82 -75 10 9 12 9 10 -3 -2 -8 0 -32 5 -53 7 -36 9 -38 39
-35 26 2 34 9 44 38 11 32 13 33 19 13 8 -28 20 -29 34 -4 8 16 6 22 -7 30
-10 6 -13 11 -8 11 11 1 -30 24 -116 65 -48 23 -60 34 -80 76 -32 70 -41 74
-64 25z"/>
<path d="M1283 3835 c-29 -13 -53 -20 -53 -14 0 5 10 14 23 20 17 7 11 9 -28
5 -27 -2 -63 -12 -80 -20 -16 -9 -36 -16 -44 -16 -27 0 -108 -52 -124 -80 -13
-21 -17 -52 -17 -123 l0 -95 65 -7 c36 -4 95 -4 132 1 73 8 108 11 218 14 39
2 93 10 120 19 43 14 50 20 53 45 2 16 -4 48 -13 72 -14 37 -22 44 -50 50 -22
4 -45 1 -64 -9 -32 -16 -42 -8 -16 13 8 7 34 11 60 8 50 -4 56 4 22 27 -21 13
-29 13 -73 0 -61 -18 -74 -18 -51 0 11 7 36 17 58 20 21 4 37 11 33 16 -9 15
-98 10 -122 -7 -13 -9 -26 -14 -29 -11 -3 3 10 15 28 27 24 14 43 18 63 14 21
-5 27 -3 24 7 -7 20 -70 23 -114 4 -20 -8 -39 -13 -41 -11 -6 6 35 27 82 42
31 10 34 13 15 13 -14 1 -49 -10 -77 -24z"/>
<path d="M2262 3763 c-28 -5 -38 -27 -36 -75 0 -22 -3 -35 -8 -32 -6 4 -8 19
-6 35 4 26 2 29 -24 29 -40 0 -36 -29 7 -57 40 -27 55 -29 55 -9 0 8 5 18 11
22 7 4 9 0 5 -14 -9 -28 11 -38 34 -17 17 16 18 15 17 -17 -2 -26 2 -33 16
-32 11 1 17 -4 16 -15 -3 -32 1 -43 15 -38 10 4 16 -2 18 -21 2 -15 9 -28 16
-28 24 -3 26 -4 14 -16 -13 -13 -2 -40 36 -80 41 -44 53 -38 64 36 2 11 9 21
16 24 7 2 12 0 11 -5 -4 -22 3 -25 21 -8 11 10 20 23 20 29 0 6 -28 25 -62 41
-43 20 -72 43 -93 72 -56 78 -90 126 -105 152 -17 27 -24 30 -58 24z"/>
<path d="M1744 3605 c-45 -7 -94 -19 -110 -28 -16 -9 -72 -33 -124 -53 -52
-20 -211 -94 -355 -164 -468 -231 -581 -271 -682 -244 -46 13 -29 60 35 93 29
15 31 -8 2 -34 -11 -10 -20 -23 -20 -29 0 -6 14 5 29 24 16 19 27 39 24 44 -4
5 -1 6 4 3 6 -4 16 0 23 8 7 8 18 15 24 15 7 0 8 -3 1 -8 -23 -16 -87 -103
-81 -109 8 -8 38 24 93 99 60 82 62 72 3 -14 -27 -40 -45 -74 -40 -76 13 -5
30 14 72 78 19 30 46 64 59 75 22 18 21 17 -2 -10 -15 -17 -39 -53 -53 -82
-40 -80 -7 -56 59 44 31 46 59 83 61 80 2 -2 -18 -37 -45 -78 -29 -43 -45 -76
-39 -78 15 -5 50 38 94 116 19 33 42 67 51 74 9 8 0 -11 -19 -41 -19 -30 -43
-70 -52 -88 -17 -32 -17 -33 2 -23 10 5 40 46 67 90 27 45 53 81 57 81 4 0
-14 -35 -42 -77 -27 -43 -47 -79 -46 -80 12 -12 42 20 81 87 24 43 50 82 56
85 6 4 0 -10 -13 -31 -38 -63 -60 -116 -46 -112 21 7 87 121 87 152 1 33 7 33
-139 -12 -281 -87 -460 -200 -460 -291 0 -27 5 -34 33 -46 33 -13 58 -11 237
25 105 21 275 83 360 130 149 83 241 123 385 166 50 14 115 39 145 55 30 15
84 33 120 39 36 6 99 22 140 36 63 21 92 25 182 23 60 -1 111 -5 114 -10 3 -5
-11 -9 -30 -9 l-35 0 27 -53 c21 -42 29 -50 36 -38 15 25 11 170 -5 186 -21
19 -226 26 -325 10z"/>
<path d="M2235 3570 c-3 -5 -24 -10 -45 -10 -21 0 -42 -4 -45 -10 -3 -5 -15
-10 -26 -10 -15 0 -19 -7 -19 -35 l0 -35 50 25 c41 21 62 25 122 23 l73 -1
-75 -6 c-89 -7 -145 -34 -127 -61 8 -13 31 -19 96 -24 84 -7 138 -27 126 -46
-4 -6 1 -10 9 -10 8 0 28 -11 43 -25 l28 -25 -22 -19 c-16 -14 -19 -21 -10
-30 15 -15 1 -28 -59 -49 -31 -12 -53 -27 -61 -42 -7 -14 -22 -27 -35 -30 -15
-4 -25 -17 -31 -39 l-8 -34 -76 7 c-43 3 -104 1 -140 -5 l-64 -11 26 -33 c16
-21 21 -36 15 -40 -26 -16 -5 -28 130 -75 50 -18 63 -25 67 -36 5 -14 -24 -50
-33 -42 -4 4 -1 14 6 23 7 9 11 17 9 18 -11 7 -166 67 -174 67 -5 0 -17 7 -27
16 -17 16 -17 18 -1 29 15 11 14 15 -10 39 -15 15 -27 29 -27 31 0 9 106 35
145 36 22 0 61 -3 87 -6 41 -7 48 -5 54 11 11 37 21 49 45 54 16 4 25 14 27
31 2 21 11 29 41 38 21 6 45 11 54 11 25 0 31 20 11 35 -18 13 -17 14 9 24 46
18 26 51 -31 51 -31 0 -34 2 -28 25 6 22 3 25 -21 26 -16 1 -37 3 -48 4 -11 2
-42 6 -70 9 -27 3 -55 13 -61 21 -19 25 -33 17 -40 -22 -4 -21 -10 -45 -15
-54 -7 -14 -2 -17 32 -17 24 -1 49 -8 60 -18 10 -9 25 -14 33 -11 20 8 61 -26
54 -45 -3 -8 -33 -27 -65 -43 -52 -25 -59 -32 -55 -53 l5 -23 -121 4 c-66 2
-127 0 -134 -4 -10 -7 -10 -9 1 -9 20 0 -26 -49 -59 -63 -23 -9 -23 -11 -5
-15 73 -16 111 -62 63 -76 l-23 -6 23 -19 c12 -11 22 -24 22 -30 0 -6 31 -20
69 -32 87 -26 105 -43 71 -70 -14 -10 -20 -19 -15 -19 6 0 3 -5 -5 -10 -8 -5
-60 -10 -114 -10 -82 0 -101 -3 -112 -17 -18 -24 -17 -50 1 -57 8 -3 15 -17
15 -31 0 -14 4 -25 9 -25 4 0 25 -16 46 -35 l37 -35 -12 -50 c-8 -31 -20 -54
-32 -61 -30 -16 -16 -21 23 -7 37 12 106 67 101 80 -1 5 -4 17 -5 28 -2 11 -6
22 -9 26 -4 3 -5 11 -2 18 3 7 -9 16 -28 21 -20 6 -38 22 -50 43 l-18 33 26 9
c14 6 59 10 100 10 54 0 74 3 73 13 -3 28 3 35 35 41 22 4 37 14 41 26 6 19
25 28 25 13 -1 -19 -22 -38 -52 -49 -25 -9 -32 -17 -31 -33 3 -20 -1 -21 -87
-21 -75 0 -92 -3 -97 -16 -9 -24 9 -47 48 -60 19 -7 35 -18 35 -25 1 -8 3 -18
4 -24 1 -5 2 -14 1 -18 -1 -4 3 -16 8 -26 8 -15 3 -24 -32 -52 -63 -51 -137
-83 -137 -59 0 23 -19 8 -30 -24 -6 -19 -18 -37 -26 -40 -14 -5 -90 6 -129 19
-11 4 3 -9 31 -28 60 -42 109 -119 150 -234 15 -43 33 -87 40 -98 7 -11 17
-38 23 -60 6 -22 30 -68 55 -101 56 -77 82 -129 91 -179 4 -22 16 -54 26 -70
23 -39 76 -79 84 -64 4 6 19 7 35 4 15 -3 31 -2 34 4 5 8 33 140 42 196 10 73
17 106 30 149 17 61 18 87 2 85 -67 -8 -82 17 -38 63 45 47 69 99 78 168 8 54
7 61 -12 74 -18 11 -19 16 -7 30 7 9 25 22 40 29 35 17 40 53 8 68 -29 13 -55
68 -93 194 -23 74 -28 110 -28 200 -1 102 1 115 30 179 38 84 109 183 144 201
15 8 32 21 39 29 8 9 23 16 35 16 21 0 20 1 -3 19 -14 11 -23 28 -23 44 0 15
-12 37 -30 54 -17 15 -34 39 -39 52 -5 13 -28 53 -51 87 -37 57 -44 64 -74 64
-18 0 -36 -4 -39 -10z"/>
<path d="M262 3550 l-21 -19 22 -40 c20 -37 23 -39 39 -24 10 9 20 14 23 11 3
-3 -1 -11 -10 -18 -8 -7 -15 -22 -15 -33 0 -16 3 -18 12 -9 7 7 17 12 22 12 6
0 5 -5 -2 -12 -7 -7 -12 -22 -12 -35 0 -20 4 -23 28 -17 l27 6 -25 -19 c-20
-14 -25 -28 -27 -63 -4 -115 -12 -217 -17 -232 -17 -50 -17 -50 1 -44 16 6 16
6 0 -12 -21 -23 -22 -62 -2 -62 11 0 10 -5 -7 -22 -20 -20 -21 -22 -3 -28 18
-6 18 -7 -2 -12 -12 -3 -26 -16 -33 -28 -11 -20 -10 -21 12 -15 21 6 20 4 -7
-18 -16 -14 -28 -27 -25 -29 34 -27 61 -34 105 -31 28 2 56 6 63 8 15 5 16 35
0 72 -6 15 -11 30 -11 33 1 3 4 22 7 42 5 31 0 48 -29 97 -47 80 -46 107 9
168 l44 48 -12 83 c-14 94 -12 119 9 142 24 27 19 69 -9 76 -39 9 -61 1 -58
-21 3 -14 -8 -8 -35 22 -40 43 -40 43 -61 23z"/>
<path d="M2546 3422 c-25 -3 -28 -7 -24 -33 3 -21 0 -30 -13 -34 -18 -6 -33
-34 -23 -44 3 -3 10 2 15 12 6 9 14 17 20 17 5 0 2 -11 -6 -24 -10 -15 -12
-27 -6 -30 5 -4 12 -2 16 4 10 16 23 12 21 -7 -1 -11 10 -20 34 -26 31 -7 39
-17 66 -75 35 -74 50 -124 59 -194 5 -39 10 -48 26 -48 33 0 40 40 13 75 -30
39 -64 119 -74 175 -5 25 -13 63 -19 85 -6 22 -13 51 -15 65 -3 14 -18 39 -33
56 -22 23 -35 29 -57 26z"/>
<path d="M1897 3353 c-4 -3 -29 -7 -55 -8 -55 -2 -185 -29 -252 -52 -45 -16
-190 -86 -370 -179 -52 -27 -133 -64 -180 -82 -47 -18 -101 -42 -120 -52 -108
-61 -166 -84 -300 -121 l-45 -12 35 -15 c64 -27 175 -9 294 47 34 16 96 43
138 61 43 17 88 39 100 49 13 9 36 23 53 31 16 8 51 29 77 46 25 18 73 40 105
49 32 10 83 28 113 40 137 56 218 76 354 85 74 6 140 12 148 15 12 5 58 81 58
98 0 9 -144 10 -153 0z"/>
<path d="M2046 3295 c-33 -60 -39 -62 -201 -74 -82 -5 -165 -15 -183 -22 -33
-11 -34 -14 -21 -54 1 -5 0 -36 -5 -67 -5 -43 -4 -64 8 -87 35 -68 11 -167
-49 -202 -27 -16 -34 -26 -29 -38 4 -9 9 -37 12 -63 3 -36 0 -50 -16 -66 -11
-11 -17 -24 -13 -29 3 -6 38 -19 77 -31 86 -26 184 -70 184 -83 0 -23 42 -7
60 24 30 48 25 71 -25 123 -25 25 -45 53 -45 61 0 9 -7 21 -16 28 -15 11 -15
14 1 48 9 20 25 39 35 42 10 3 57 3 105 1 81 -5 87 -4 92 14 3 11 12 20 20 20
35 0 1 26 -63 47 -38 12 -70 23 -71 23 -2 0 -3 5 -3 11 0 6 -11 20 -25 31 -32
25 -32 36 0 44 37 9 26 27 -28 44 -52 16 -58 36 -19 56 42 21 48 32 26 49 -10
8 -17 15 -14 16 47 10 206 12 258 3 32 -6 33 -5 26 20 -5 22 -2 27 22 36 16 6
44 18 62 28 41 21 39 48 -4 45 -21 -2 -37 4 -49 17 -12 13 -31 20 -54 20 -31
0 -39 -5 -55 -35z"/>
<path d="M1240 3305 c-19 -7 -66 -29 -105 -48 l-70 -35 29 -11 c15 -6 48 -25
71 -42 24 -17 48 -29 53 -25 5 3 15 27 22 53 7 27 22 65 32 86 20 41 19 42
-32 22z"/>
<path d="M1041 3178 c-11 -18 -39 -115 -41 -140 0 -7 22 1 143 56 l59 26 -29
23 c-33 28 -86 57 -105 57 -7 0 -19 -10 -27 -22z"/>
<path d="M1562 3165 c-24 -8 -52 -25 -65 -42 -35 -46 -77 -86 -84 -80 -3 4 8
20 26 36 17 16 31 33 31 39 0 14 -149 -37 -192 -66 -21 -14 -38 -26 -38 -27 0
-2 15 -12 33 -24 25 -16 28 -21 13 -21 -11 0 -27 7 -37 16 -11 9 -26 13 -37 9
-20 -6 -20 -6 3 -29 12 -12 43 -28 68 -35 35 -10 44 -17 40 -30 -12 -33 -48
-62 -86 -68 -26 -4 -34 -9 -25 -14 11 -7 -56 -6 -72 1 -7 3 -23 7 -37 8 -14 2
-34 68 -26 88 3 10 -12 6 -53 -12 -143 -62 -143 -64 -96 -130 15 -21 33 -51
41 -66 16 -31 83 -68 124 -68 23 0 53 7 157 36 l25 7 -23 -19 -24 -20 34 -36
33 -36 40 21 c30 16 40 27 37 41 -4 17 -2 17 18 -2 20 -18 25 -19 44 -7 15 9
35 11 69 6 46 -8 49 -7 59 18 7 19 6 37 -6 69 -18 49 -6 92 25 92 10 0 27 13
39 30 17 24 20 40 16 76 -6 57 -12 64 -19 24 -9 -45 -46 -55 -115 -34 -63 20
-73 36 -43 68 12 13 32 43 44 67 22 44 67 76 88 63 7 -4 9 -22 5 -48 -5 -33
-4 -38 5 -22 20 33 27 82 15 108 -11 25 -12 25 -54 13z m-116 -307 c9 -18 24
-42 34 -53 52 -59 27 -93 -70 -91 l-65 1 0 30 c0 17 12 56 25 88 29 66 51 73
76 25z"/>
<path d="M2426 3121 c-16 -18 -16 -21 -1 -44 9 -14 12 -28 7 -31 -5 -3 -12 3
-15 14 -6 23 -22 26 -30 6 -7 -18 3 -56 14 -56 5 0 9 -6 9 -14 0 -19 -38 -46
-54 -40 -15 6 -16 2 -23 -95 -4 -65 -3 -73 10 -63 8 7 21 27 28 45 17 43 38
67 61 67 16 0 23 -11 19 -34 -1 -4 4 -15 11 -23 13 -16 38 -80 38 -99 0 -6
-12 -16 -26 -22 -14 -7 -23 -8 -20 -3 3 5 -3 11 -14 14 -11 3 -18 1 -14 -4 3
-5 0 -9 -5 -9 -6 0 -11 5 -11 10 0 6 -10 10 -22 10 -12 0 -29 7 -38 15 -16 14
-16 12 -9 -32 4 -27 8 -54 8 -60 1 -17 30 -16 65 2 34 18 39 19 30 4 -10 -18
16 -28 48 -18 41 11 102 68 107 98 1 14 4 47 5 73 0 25 4 44 9 41 4 -2 7 9 7
26 0 30 0 31 -43 25 -43 -6 -107 15 -107 35 0 5 25 34 55 64 35 34 51 58 44
62 -6 4 -23 -5 -38 -19 -15 -14 -36 -26 -47 -26 -15 0 -12 4 12 19 47 29 48
37 4 60 -50 26 -53 26 -74 2z"/>
<path d="M754 3080 c-5 -5 -36 -12 -69 -15 -64 -7 -117 -23 -111 -34 5 -8 99
-55 148 -75 l36 -14 6 46 c4 26 9 59 12 75 6 27 -4 35 -22 17z"/>
<path d="M795 3078 c-2 -7 -6 -35 -10 -63 -4 -27 -9 -61 -12 -75 -5 -21 -3
-23 8 -12 7 6 21 12 31 12 10 0 18 3 18 8 0 4 32 23 71 42 61 30 67 35 47 41
-13 4 -49 18 -82 33 -68 30 -65 30 -71 14z"/>
<path d="M555 2990 c-4 -17 -4 -53 0 -79 l7 -49 66 19 c103 28 112 31 112 40
0 6 -8 12 -17 16 -41 14 -81 33 -120 57 l-41 26 -7 -30z"/>
<path d="M425 2915 c-3 -8 -7 -22 -10 -31 -3 -8 2 -28 10 -44 19 -37 19 -74 0
-90 -10 -8 -12 -17 -7 -22 6 -6 0 -33 -16 -69 -25 -57 -25 -62 -13 -137 6 -42
13 -92 14 -109 1 -18 5 -33 10 -33 4 0 7 -14 7 -30 0 -17 9 -55 19 -85 11 -31
15 -53 10 -50 -14 9 -11 -9 6 -31 17 -23 20 -75 4 -91 -6 -6 -8 -16 -4 -23 4
-7 21 2 48 27 23 21 63 53 88 71 26 17 57 44 70 59 32 37 82 67 149 89 30 10
61 24 68 31 8 7 18 11 23 8 5 -4 9 -2 9 4 0 19 111 89 160 101 28 7 50 14 50
15 0 2 -14 25 -32 51 -19 29 -32 60 -32 79 0 28 -6 35 -45 56 -45 24 -63 48
-111 147 -12 23 -22 42 -24 42 -2 0 -19 -6 -38 -14 -19 -8 -70 -22 -115 -31
-76 -15 -83 -15 -114 0 -35 19 -52 31 -77 58 -9 9 -22 17 -28 17 -6 0 -17 7
-24 16 -23 27 -50 37 -55 19z"/>
<path d="M2706 2912 c-2 -4 -4 -57 -4 -118 1 -70 -3 -118 -11 -133 -12 -21
-11 -22 11 -16 22 7 22 7 6 -12 -26 -28 -23 -46 5 -37 21 6 21 6 6 -12 -9 -11
-19 -31 -23 -47 -6 -26 -5 -27 21 -22 l28 6 -27 -18 c-16 -10 -28 -21 -28 -26
0 -4 12 -4 28 0 l27 6 -29 -25 -30 -25 35 -10 c19 -6 52 -10 74 -9 36 1 40 4
43 28 3 26 -34 108 -48 108 -18 0 -33 65 -36 155 -4 110 -9 163 -19 194 -6 21
-20 27 -29 13z"/>
<path d="M196 2738 c-9 -12 -16 -29 -16 -37 0 -12 3 -12 18 1 35 30 55 29 22
-2 -37 -35 -32 -61 7 -30 14 11 28 18 31 15 3 -3 -3 -11 -13 -19 -27 -19 -5
-45 33 -39 26 3 26 3 3 -7 -15 -7 -21 -15 -17 -26 3 -9 6 -17 6 -19 0 -2 10
-1 22 3 14 3 19 2 14 -6 -4 -7 -13 -12 -21 -12 -8 0 -11 -7 -8 -21 3 -12 11
-18 19 -15 18 7 17 -4 -1 -28 -8 -11 -15 -28 -15 -38 0 -15 4 -17 18 -9 11 6
24 6 33 0 11 -7 10 -9 -5 -9 -19 0 -45 -26 -46 -47 0 -6 9 -9 23 -6 l22 5 -22
-16 c-20 -15 -23 -26 -23 -86 0 -55 3 -68 14 -64 8 3 17 1 21 -5 3 -6 0 -11
-8 -11 -8 0 -29 -16 -46 -35 -33 -39 -43 -69 -13 -42 29 27 38 20 11 -9 l-24
-26 24 -19 c34 -28 74 -22 50 7 -9 11 2 13 56 11 64 -2 66 -1 81 27 13 27 13
31 -5 50 -12 13 -23 48 -30 96 -6 41 -15 102 -21 135 -32 190 -32 188 -11 238
33 76 32 81 -15 87 -31 5 -41 3 -37 -6 7 -19 -32 -6 -53 17 -23 26 -59 24 -78
-3z"/>
<path d="M1070 2613 c0 -23 40 -77 60 -81 8 -2 20 -8 25 -14 7 -7 3 -8 -13 -3
l-22 6 22 -45 c12 -25 29 -46 37 -47 11 0 12 -2 4 -6 -16 -6 -17 -39 -1 -49 6
-4 17 1 25 11 12 17 13 17 13 -9 0 -21 7 -30 35 -42 19 -7 42 -14 51 -14 9 0
22 -7 29 -17 11 -15 16 -15 59 -1 25 8 46 11 46 6 0 -5 8 -2 17 8 18 18 45 85
38 92 -2 3 -20 1 -40 -2 -30 -6 -35 -10 -30 -27 4 -11 2 -19 -4 -19 -6 0 -11
9 -11 20 0 16 -7 20 -34 20 -28 0 -36 -5 -45 -27 -11 -27 -11 -27 -7 7 4 31 0
38 -26 53 -16 9 -34 17 -40 17 -14 0 -68 53 -68 67 0 6 -10 19 -22 27 -12 9
-27 30 -32 48 -9 25 -17 34 -38 36 -22 3 -28 -1 -28 -15z"/>
<path d="M2642 2548 c-16 -29 -52 -76 -78 -105 -43 -46 -53 -52 -81 -48 -40 5
-41 -1 -7 -36 27 -28 27 -69 0 -69 -18 0 -27 -48 -16 -94 4 -20 23 -70 40
-111 18 -40 30 -80 27 -89 -9 -23 -59 -20 -91 5 -15 12 -29 19 -32 17 -2 -3
-11 -38 -19 -79 -30 -153 -37 -186 -51 -246 -21 -92 -19 -122 10 -133 26 -10
43 -55 26 -75 -6 -7 -8 -35 -5 -66 5 -52 4 -54 -32 -86 -20 -18 -40 -33 -44
-33 -4 0 -10 -17 -14 -37 -4 -21 -12 -41 -18 -45 -20 -13 -55 -9 -72 8 -11 11
-19 13 -28 6 -26 -22 -42 4 -40 68 1 56 0 60 -21 60 -12 0 -31 -7 -42 -15 -16
-13 -17 -16 -4 -25 12 -8 11 -10 -7 -10 -19 0 -22 -6 -25 -52 -2 -44 -6 -53
-23 -56 -17 -2 -20 -11 -23 -70 -8 -198 -5 -252 14 -252 24 0 165 128 163 148
-4 28 16 52 50 58 98 16 139 42 177 112 13 26 38 65 54 87 16 22 29 50 30 62
0 13 15 40 34 60 44 50 49 62 76 175 21 88 22 101 10 139 -12 36 -12 43 1 53
8 6 18 19 22 28 3 9 18 36 34 60 24 38 30 64 50 217 21 169 20 209 -6 226 -16
10 -13 61 5 79 14 15 14 17 0 22 -14 5 -15 20 -10 100 4 52 4 94 1 94 -3 0
-19 -24 -35 -52z"/>
<path d="M1625 2373 c4 -10 8 -26 10 -36 2 -9 6 -21 9 -26 12 -19 -23 -33 -66
-25 -24 4 -47 6 -53 5 -5 -2 -20 -3 -32 -3 -23 -1 -23 -5 -4 -74 13 -46 14
-67 4 -61 -13 8 -184 -11 -214 -23 -33 -14 -35 -20 -14 -59 8 -16 17 -47 21
-69 l6 -40 -38 8 c-22 4 -52 15 -69 24 -16 9 -40 16 -53 16 -12 0 -39 7 -59
15 -60 25 -62 22 -33 -62 15 -43 37 -97 49 -120 11 -23 21 -47 21 -53 0 -12
-131 -13 -202 -1 -33 5 -45 4 -41 -3 18 -31 129 -159 146 -167 16 -9 14 -14
-27 -41 -25 -16 -46 -32 -46 -35 0 -3 18 -2 40 2 28 5 40 3 40 -5 0 -13 48 -5
64 10 10 10 -10 44 -66 111 -54 64 -51 72 25 65 74 -7 131 4 135 26 3 17 -32
98 -73 167 -14 24 -24 46 -21 49 3 2 38 -7 78 -21 77 -27 145 -30 170 -9 13
10 14 18 3 50 -21 64 -26 112 -10 118 8 3 39 0 69 -6 54 -11 57 -10 93 17 58
43 58 43 38 126 -7 25 -6 26 32 20 21 -3 45 -9 53 -14 10 -5 23 0 37 15 33 34
18 125 -21 126 -4 0 -5 -8 -1 -17z"/>
<path d="M2700 2370 c0 -5 6 -10 13 -10 6 0 4 -5 -5 -11 -25 -14 -23 -33 1
-19 24 12 31 13 31 1 0 -5 -9 -11 -21 -14 -12 -3 -18 -10 -14 -16 4 -8 12 -8
25 -1 31 17 37 11 10 -10 -21 -17 -23 -21 -10 -30 12 -7 12 -12 2 -22 -20 -20
-15 -40 8 -33 11 3 28 2 37 -4 15 -9 13 -10 -12 -11 -40 0 -55 -16 -55 -56 0
-27 3 -31 19 -27 10 3 21 0 25 -5 3 -5 -8 -12 -24 -16 -27 -5 -30 -9 -30 -43
0 -21 -3 -49 -7 -62 -6 -22 -4 -23 20 -17 15 3 27 2 27 -3 0 -4 -14 -11 -31
-15 -17 -3 -28 -10 -24 -16 4 -6 -3 -26 -14 -45 -11 -19 -16 -35 -11 -35 6 0
10 -4 10 -10 0 -5 -9 -10 -19 -10 -26 0 -30 -18 -13 -52 15 -32 32 -35 67 -12
13 8 34 14 47 12 20 -3 23 1 20 27 -2 17 -5 54 -9 84 -3 30 -1 71 5 90 5 20
15 57 21 83 6 26 27 70 46 97 32 44 36 56 33 103 l-3 52 -42 9 c-26 5 -50 18
-62 33 -19 24 -61 34 -61 14z"/>
<path d="M864 2312 c-55 -30 -108 -69 -131 -95 -11 -14 -27 -29 -35 -33 -29
-18 -117 -132 -150 -194 -19 -36 -50 -91 -67 -122 -18 -32 -29 -63 -26 -68 4
-6 -1 -20 -10 -30 -13 -14 -16 -28 -11 -55 4 -19 10 -35 15 -35 4 0 6 -13 3
-30 -2 -16 -2 -36 1 -44 6 -16 26 -12 110 22 36 15 50 32 24 32 -7 0 -28 11
-47 25 -19 14 -40 23 -48 20 -7 -3 -10 0 -7 6 4 5 2 16 -4 23 -13 15 2 27 81
65 27 13 50 27 53 31 3 5 -10 21 -30 36 -19 14 -35 32 -35 39 0 14 50 35 83
35 18 0 18 2 -7 34 -31 41 -32 53 -8 60 15 4 130 26 139 26 11 0 -1 24 -27 53
-16 19 -30 37 -30 40 0 3 17 7 38 11 86 13 112 19 117 26 3 5 -1 28 -9 51 -8
24 -13 45 -11 48 3 2 26 -1 52 -6 36 -9 50 -8 55 0 10 16 4 33 -11 30 -6 -2
-11 2 -11 7 0 15 -21 12 -56 -8z"/>
<path d="M2365 2302 c-3 -3 -5 -22 -5 -42 0 -21 -7 -57 -15 -81 -11 -30 -12
-45 -4 -49 6 -4 2 -10 -11 -13 -15 -4 -21 -11 -17 -21 4 -10 1 -16 -9 -16 -10
0 -14 -6 -11 -14 4 -9 -3 -16 -19 -20 -13 -4 -24 -11 -24 -17 0 -11 37 -3 58
14 7 5 27 32 44 58 17 27 35 49 40 49 5 0 6 -4 3 -10 -3 -5 -1 -10 5 -10 7 0
10 -7 6 -15 -3 -10 1 -15 12 -16 10 0 12 -3 5 -6 -7 -2 -13 -14 -13 -25 0 -13
5 -18 14 -15 10 4 12 0 8 -15 -4 -17 -2 -20 11 -15 11 4 17 1 17 -9 0 -10 8
-14 23 -12 16 2 21 9 19 26 -5 34 -39 107 -58 123 -13 10 -14 25 -9 81 4 37 3
69 -1 70 -26 4 -64 4 -69 0z"/>
<path d="M1700 2266 c-21 -6 -66 -40 -105 -79 -39 -38 -83 -75 -98 -83 -15 -8
-25 -19 -22 -24 4 -6 -1 -10 -9 -10 -8 0 -32 -23 -53 -50 -21 -28 -69 -88
-107 -133 -45 -55 -86 -119 -122 -192 -30 -60 -54 -113 -54 -118 0 -4 9 -2 19
5 16 10 23 9 40 -6 19 -17 20 -17 45 37 26 53 35 86 16 57 -7 -11 -14 -12 -27
-4 -25 15 -26 28 -5 52 23 26 38 28 50 6 7 -13 13 -8 30 27 19 37 20 45 7 52
-22 12 -18 45 7 58 18 10 24 8 35 -7 12 -17 16 -16 52 20 l40 39 -21 17 c-14
11 -19 23 -15 34 10 26 36 31 52 10 13 -18 15 -18 45 13 29 30 31 34 16 48
-20 20 -20 29 -2 44 15 12 46 5 46 -11 0 -6 15 3 34 19 30 25 32 30 19 45 -19
21 -9 38 23 38 21 0 29 -9 25 -32 -2 -16 19 -7 31 12 7 11 18 20 25 20 17 0
16 8 -2 27 -21 21 -15 47 13 51 19 3 22 -1 22 -27 0 -24 4 -31 19 -31 11 0 22
3 24 8 6 9 -40 82 -51 81 -4 -1 -23 -6 -42 -13z"/>
<path d="M864 2246 c3 -13 8 -35 12 -48 5 -24 3 -26 -53 -37 -85 -17 -89 -21
-59 -66 14 -21 26 -41 26 -44 0 -4 -37 -12 -82 -20 -46 -7 -85 -15 -87 -17 -3
-3 10 -18 28 -34 38 -35 36 -52 -6 -61 -51 -10 -57 -18 -33 -44 30 -31 23 -64
-18 -86 -39 -20 -72 -48 -72 -60 0 -11 68 -55 98 -64 14 -4 22 -2 22 5 0 6 16
44 37 83 20 40 44 90 55 112 10 22 25 52 33 68 14 26 13 27 -9 21 -31 -7 -42
28 -15 52 16 15 21 15 41 2 22 -13 25 -11 62 29 l39 43 -30 -6 c-26 -5 -31 -2
-36 17 -13 48 46 67 68 22 11 -22 12 -21 63 18 29 21 59 39 67 39 22 0 30 22
12 35 -10 7 -17 17 -17 22 0 16 -37 45 -44 35 -4 -6 -20 -7 -43 -1 -60 14 -66
12 -59 -15z"/>
<path d="M1765 2173 c-11 -3 -33 -15 -50 -27 -16 -12 -50 -34 -75 -48 -25 -14
-65 -50 -89 -80 -25 -29 -64 -73 -88 -98 -121 -126 -150 -161 -160 -192 -6
-18 -26 -67 -43 -108 -59 -135 -64 -151 -64 -198 -1 -36 3 -47 16 -50 12 -2
16 1 13 11 -4 9 6 17 32 25 60 19 67 26 53 53 -7 13 -22 32 -33 41 l-22 16 28
6 c15 3 38 8 52 11 30 6 32 25 5 50 -40 36 -19 51 68 48 17 -1 15 32 -3 47
-29 24 -18 38 29 33 52 -6 63 5 41 48 -17 31 -11 58 5 28 6 -11 19 -14 39 -11
30 4 30 5 15 33 -8 16 -20 29 -26 29 -9 0 -9 3 0 12 9 9 20 10 40 2 15 -6 33
-9 40 -6 14 4 17 32 3 32 -8 0 -23 51 -16 58 1 2 19 -5 39 -14 19 -10 38 -15
41 -12 4 3 -1 23 -9 43 -23 55 -22 70 6 51 12 -9 31 -16 41 -16 20 0 20 19 2
78 -9 29 4 28 36 -2 l26 -24 1 31 c0 17 -4 39 -9 49 -13 25 5 24 43 -3 16 -12
31 -19 33 -17 3 2 0 21 -6 41 -10 37 -15 39 -54 30z"/>
<path d="M1023 2155 c-17 -7 -37 -23 -46 -35 -9 -14 -20 -19 -28 -15 -8 5 -10
4 -5 -3 4 -7 1 -12 -9 -12 -18 0 -115 -89 -115 -106 0 -6 -9 -19 -20 -29 -10
-9 -27 -38 -37 -64 -9 -25 -39 -88 -66 -139 l-49 -94 6 -86 c5 -76 15 -157 29
-227 3 -16 12 -20 49 -20 42 0 45 2 36 19 -12 23 -25 101 -38 228 -11 104 -3
140 48 228 11 19 25 54 31 77 13 46 52 90 188 210 80 70 90 95 26 68z"/>
<path d="M1053 2111 l-42 -38 45 -21 c24 -12 57 -22 72 -22 15 0 45 -9 67 -20
57 -29 79 -27 71 6 -16 61 -41 97 -76 109 -80 27 -92 26 -137 -14z"/>
<path d="M1773 2095 c19 -66 19 -75 1 -75 -9 0 -26 8 -37 18 -19 17 -20 16
-14 -10 4 -14 10 -34 14 -43 5 -16 1 -17 -40 -11 l-46 7 20 -46 c11 -26 18
-49 15 -52 -3 -3 -23 2 -46 11 -43 17 -50 10 -24 -28 18 -28 9 -38 -40 -39
l-33 -1 16 -27 c18 -32 16 -36 -24 -42 -27 -3 -44 -27 -20 -27 22 0 86 31 91
44 3 8 13 17 21 20 13 5 14 4 3 -9 -11 -13 -9 -15 14 -15 23 0 26 3 21 23 -5
19 3 32 39 65 48 44 62 51 136 73 25 7 46 13 48 14 3 2 -21 79 -37 120 -10 23
-14 26 -21 15 -7 -12 -14 -10 -36 10 -24 22 -26 23 -21 5z"/>
<path d="M2348 2062 c-16 -27 -16 -30 0 -45 15 -16 15 -17 -2 -17 -15 0 -16
-3 -6 -15 10 -12 10 -15 -4 -15 -9 0 -16 -8 -16 -20 0 -11 5 -20 10 -20 6 0
10 -4 10 -10 0 -5 -6 -10 -14 -10 -17 0 -29 -42 -15 -51 7 -4 5 -9 -5 -12 -20
-8 -21 -27 -1 -27 8 0 15 -4 15 -10 0 -5 -7 -10 -15 -10 -8 0 -15 -4 -15 -10
0 -5 5 -10 10 -10 6 0 10 -4 10 -10 0 -5 -7 -7 -15 -4 -9 4 -15 0 -15 -10 0
-9 7 -16 15 -16 22 0 18 -17 -5 -23 -23 -6 -27 -27 -5 -27 8 0 15 -5 15 -11 0
-6 -7 -9 -15 -5 -8 3 -15 2 -15 -3 0 -5 9 -11 19 -14 22 -5 24 1 56 179 9 49
23 119 31 156 19 92 5 127 -28 70z"/>
<path d="M331 2063 c-9 -7 -24 -13 -33 -13 -21 0 -22 -4 -8 -30 7 -12 16 -17
27 -13 11 4 14 3 9 -5 -10 -17 21 -27 39 -12 8 7 15 8 15 4 0 -5 -9 -15 -20
-22 -14 -8 -20 -23 -20 -48 0 -21 4 -33 10 -29 6 3 10 1 10 -4 0 -6 -7 -11
-15 -11 -8 0 -15 -9 -15 -20 0 -14 7 -20 23 -21 l22 0 -22 -9 c-27 -11 -30
-30 -5 -30 16 -1 16 -1 0 -11 -25 -14 -22 -29 5 -30 l22 0 -22 -9 c-13 -5 -23
-17 -23 -27 0 -13 3 -14 12 -5 7 7 19 12 27 12 10 0 6 -7 -11 -17 -32 -20 -45
-63 -16 -55 10 2 18 11 18 18 0 8 4 14 9 14 13 0 22 -43 11 -54 -7 -7 -10 -4
-10 7 0 16 -2 16 -30 2 -36 -19 -44 -61 -9 -50 15 5 19 4 15 -4 -4 -6 -13 -11
-20 -11 -7 0 -22 -13 -34 -29 l-21 -29 22 5 c16 4 18 2 8 -5 -19 -14 -6 -59
19 -67 11 -4 29 0 42 9 12 9 37 16 55 16 29 0 33 4 39 35 4 21 2 41 -5 48 -30
37 -49 355 -24 419 11 26 12 42 4 56 -6 11 -7 22 -4 26 15 14 -76 14 -96 -1z"/>
<path d="M955 2021 c-40 -24 -111 -102 -120 -132 -4 -13 -25 -62 -47 -107 -42
-86 -57 -174 -42 -245 5 -23 8 -26 17 -14 7 8 47 20 93 27 58 9 89 19 110 36
l29 24 -25 20 c-14 11 -21 20 -16 20 8 0 -102 132 -116 138 -5 2 -8 9 -8 16 0
10 13 11 58 4 57 -9 191 -12 198 -5 2 2 -11 34 -30 71 -19 38 -32 75 -29 83 4
11 2 14 -5 9 -8 -5 -14 7 -18 34 -4 22 -9 40 -13 40 -3 0 -19 -8 -36 -19z"/>
<path d="M1858 1905 c-49 -18 -86 -42 -130 -84 -44 -41 -47 -51 -14 -51 16 0
26 7 29 21 6 23 31 21 33 -2 1 -8 2 -18 3 -23 0 -4 12 -1 25 7 13 9 32 14 42
11 13 -3 22 2 29 18 7 15 18 22 32 21 35 -4 45 19 24 57 -21 41 -26 42 -73 25z"/>
<path d="M1961 1738 c-32 -16 -47 -31 -61 -63 -10 -24 -24 -46 -30 -50 -6 -4
-4 7 5 25 9 17 14 34 11 38 -10 10 -55 -39 -49 -54 3 -9 -1 -14 -12 -14 -28 0
-65 -48 -74 -96 -8 -42 -6 -54 10 -54 4 0 21 25 38 55 20 35 50 69 85 94 30
22 57 45 61 51 3 5 11 10 17 10 7 0 6 -6 -2 -15 -15 -18 -7 -19 22 -4 16 9 18
13 7 20 -10 6 -6 11 15 19 19 7 26 15 22 26 -3 9 -6 20 -6 25 0 13 -10 11 -59
-13z"/>
<path d="M1600 1731 c-19 -9 -42 -15 -52 -13 -20 4 -35 -18 -18 -28 15 -9 50
-1 50 11 0 5 7 9 16 9 13 0 14 -3 5 -14 -9 -11 -5 -15 24 -20 19 -4 35 -11 35
-16 0 -6 9 -6 23 -1 12 4 28 6 35 4 15 -6 122 27 122 37 0 22 -38 34 -111 36
-43 2 -82 5 -86 7 -5 3 -24 -2 -43 -12z"/>
<path d="M2619 1728 c-10 -4 -19 -12 -19 -19 0 -6 6 -9 13 -6 8 3 20 1 28 -4
11 -7 9 -9 -8 -9 -27 0 -30 -15 -5 -29 16 -10 16 -10 0 -11 -10 0 -18 -3 -18
-6 0 -4 8 -13 18 -21 16 -13 15 -14 -4 -8 -23 6 -42 -20 -21 -28 8 -3 5 -10
-8 -20 -19 -15 -19 -16 -1 -36 11 -12 16 -24 13 -28 -4 -3 -7 -1 -7 5 0 7 -7
12 -15 12 -18 0 -21 -46 -2 -53 7 -4 6 -6 -4 -6 -18 -1 -33 -27 -23 -42 3 -5
-6 -9 -20 -9 -28 0 -45 -18 -26 -30 8 -5 5 -9 -9 -13 -26 -6 -28 -27 -2 -27
10 0 31 -16 45 -35 26 -33 27 -34 45 -16 13 13 19 40 24 102 7 109 14 125 81
191 44 43 56 61 55 84 0 16 -3 23 -6 17 -2 -7 -9 -13 -14 -13 -6 0 -5 9 2 21
7 14 7 25 1 31 -12 12 -86 16 -113 6z"/>
<path d="M1410 1689 c0 -4 7 -12 15 -19 8 -7 15 -21 15 -31 0 -15 -8 -19 -35
-20 -19 -1 -39 -3 -45 -4 -5 -1 -12 -3 -15 -4 -3 0 3 -11 15 -23 29 -31 26
-56 -7 -64 -54 -11 -56 -13 -39 -30 24 -23 35 -49 28 -60 -4 -6 -24 -18 -44
-27 -21 -10 -38 -21 -38 -25 0 -4 12 -16 26 -27 14 -11 39 -33 55 -49 15 -17
31 -28 34 -25 3 3 8 32 11 65 7 68 30 140 55 169 9 11 31 44 49 73 30 49 31
54 16 71 -9 10 -16 22 -16 27 0 5 -18 9 -40 9 -22 0 -40 -2 -40 -6z"/>
<path d="M2015 1669 c-5 -5 -37 -27 -71 -49 -45 -28 -74 -57 -109 -110 -49
-70 -49 -71 -32 -99 9 -16 17 -46 17 -66 0 -30 3 -36 16 -31 9 3 20 6 25 6 15
0 10 23 -18 77 -15 28 -25 55 -21 58 3 3 28 6 55 7 l50 0 -16 44 c-12 33 -13
46 -4 55 11 11 33 5 104 -32 15 -7 16 1 15 71 0 44 -1 80 -1 80 0 -1 -4 -5
-10 -11z"/>
<path d="M1550 1643 c0 -20 37 -93 49 -98 9 -4 11 0 6 12 -16 38 -18 56 -7 49
6 -4 14 -23 18 -42 6 -35 8 -36 43 -30 20 3 44 6 53 6 10 0 29 22 47 56 l30
55 -47 -7 c-26 -4 -48 -11 -50 -15 -2 -5 -28 -9 -58 -9 -39 0 -56 4 -60 15 -6
15 -24 21 -24 8z"/>
<path d="M575 1613 c-27 -12 -56 -23 -62 -23 -22 0 -14 -20 22 -57 25 -26 39
-33 46 -26 8 8 5 13 -10 18 -24 7 -27 23 -7 50 28 39 59 -30 33 -72 -5 -7 -17
-13 -28 -13 -10 0 -34 -8 -52 -18 -27 -14 -33 -23 -32 -47 1 -20 -7 -38 -21
-51 -15 -15 -21 -29 -17 -44 5 -21 7 -20 41 12 l36 33 -36 -45 c-32 -42 -34
-48 -26 -88 8 -36 12 -41 24 -31 8 6 14 17 14 23 0 6 21 28 46 49 33 26 56 37
80 37 30 0 34 3 34 28 0 15 -5 54 -11 87 -6 33 -14 92 -18 131 l-6 71 -50 -24z"/>
<path d="M2042 1568 c3 -63 -5 -71 -50 -49 -20 11 -48 22 -62 25 -14 3 -19 3
-12 0 6 -3 10 -10 7 -15 -3 -4 4 -26 15 -49 l20 -40 -32 -1 c-18 -1 -45 0 -60
1 -33 2 -33 -1 -11 -43 l17 -32 7 25 c4 14 7 19 8 12 1 -7 6 -10 12 -6 7 4 7
-1 -1 -16 -6 -12 -10 -30 -7 -40 4 -17 -11 -29 -56 -44 -18 -6 -18 -7 1 -40
22 -37 17 -50 -23 -58 -25 -4 -35 -72 -11 -81 22 -9 95 101 96 145 1 7 7 24
15 38 12 22 11 27 -3 45 -16 18 -16 19 0 6 25 -19 44 -8 68 38 13 26 34 48 59
60 30 16 40 28 45 55 4 20 14 42 22 51 14 13 13 16 -9 24 -14 6 -28 15 -32 20
-14 24 -25 9 -23 -31z"/>
<path d="M1030 1515 c-25 -7 -62 -16 -82 -20 -21 -3 -38 -11 -38 -16 0 -6 17
-28 38 -49 35 -36 42 -39 88 -37 49 2 49 2 50 37 0 19 4 50 9 68 9 37 6 37
-65 17z"/>
<path d="M365 1448 c-11 -7 -31 -13 -45 -13 -37 -2 -67 -14 -74 -30 -6 -17 10
-30 19 -15 3 5 11 10 18 10 8 0 8 -3 -1 -12 -19 -19 -14 -30 9 -17 16 8 20 8
14 0 -11 -18 38 -62 55 -50 25 15 36 10 12 -7 -27 -19 -31 -56 -4 -47 14 5 15
3 5 -8 -19 -20 -16 -32 7 -26 18 5 19 4 5 -16 -8 -12 -15 -30 -15 -40 0 -15 3
-16 20 -7 11 6 20 8 20 5 0 -3 -9 -14 -20 -25 -26 -26 -25 -40 3 -40 20 -1 20
-2 5 -11 -22 -13 -25 -51 -3 -43 16 7 21 -11 6 -20 -5 -3 -7 -14 -4 -25 3 -13
11 -17 26 -13 l22 5 -22 -25 c-13 -13 -23 -30 -23 -37 0 -8 8 -10 23 -6 22 6
22 6 2 -12 -11 -10 -21 -26 -21 -35 -1 -13 5 -15 35 -12 32 4 33 3 12 -6 -41
-18 -65 -69 -26 -53 8 3 15 1 15 -5 0 -5 -7 -12 -15 -16 -8 -3 -15 -10 -15
-16 0 -5 7 -10 15 -10 8 0 15 -4 15 -10 0 -5 -4 -10 -9 -10 -7 0 -25 -55 -23
-71 1 -4 -8 -15 -18 -24 -11 -10 -20 -25 -20 -33 0 -12 4 -12 20 3 11 10 20
13 20 8 0 -6 -7 -16 -15 -23 -8 -7 -15 -17 -15 -22 0 -6 7 -8 15 -4 8 3 15 2
15 -3 0 -16 39 -19 51 -5 15 18 29 18 44 -2 11 -15 14 -15 43 0 17 9 33 20 37
26 7 12 -12 51 -33 66 -10 7 -18 43 -24 115 -13 134 -41 304 -68 399 -31 112
-37 193 -16 225 10 15 15 33 12 41 -7 17 -63 18 -91 2z"/>
<path d="M1013 1350 c-13 -15 -23 -31 -23 -35 0 -4 -14 -26 -31 -50 -28 -39
-30 -47 -21 -75 6 -17 9 -44 5 -61 -4 -21 0 -35 12 -49 10 -11 19 -32 20 -47
0 -18 9 -32 24 -39 25 -13 49 -34 38 -34 -4 0 -16 5 -27 12 -26 17 -35 5 -17
-24 8 -12 17 -35 21 -49 5 -25 41 -49 73 -49 13 0 14 2 2 17 -8 9 -14 26 -15
37 0 12 -5 31 -12 43 -16 29 -16 30 13 37 34 9 31 21 -7 32 -38 11 -47 31 -18
42 21 8 21 8 -4 20 -35 16 -33 38 7 52 l32 12 -37 16 c-48 19 -48 37 -2 64
l36 21 -26 14 c-30 16 -35 43 -7 43 10 0 33 6 50 13 l31 13 -28 27 c-36 34
-61 33 -89 -3z"/>
<path d="M1120 1360 c14 -11 28 -20 33 -20 10 0 9 -30 -2 -30 -5 0 -26 -7 -47
-16 l-39 -17 28 -9 c31 -11 31 -26 2 -42 -11 -6 -30 -19 -43 -28 l-23 -17 35
-7 c49 -9 53 -20 19 -50 -23 -20 -26 -26 -13 -34 8 -5 19 -10 24 -10 5 0 1 -9
-9 -20 -10 -11 -16 -21 -14 -23 44 -26 47 -26 54 -4 6 21 7 20 15 -8 5 -16 14
-50 20 -75 5 -25 15 -54 20 -65 5 -11 10 -31 12 -45 2 -16 10 -26 23 -28 11
-2 25 -9 30 -14 7 -8 6 -9 -2 -4 -8 4 -13 1 -13 -9 0 -8 7 -18 15 -21 8 -3 17
-14 20 -24 3 -11 24 -41 46 -67 21 -26 39 -54 39 -62 0 -7 8 -20 18 -27 13
-10 13 -13 3 -14 -8 0 14 -29 47 -64 34 -35 62 -69 62 -75 0 -22 17 -10 36 26
10 20 38 68 62 107 23 39 42 77 42 85 0 8 6 22 14 30 7 9 24 45 36 81 13 36
29 72 35 80 17 22 35 78 35 112 0 22 -4 29 -16 26 -9 -2 -20 -10 -24 -18 -54
-107 -70 -146 -70 -164 0 -12 -15 -53 -33 -91 -19 -39 -44 -103 -56 -143 -12
-39 -23 -72 -26 -72 -2 0 -27 36 -56 80 -28 44 -55 80 -58 80 -16 0 -105 99
-126 140 -13 25 -32 54 -44 64 -24 22 -29 45 -5 25 13 -11 13 -6 -2 27 -10 21
-24 46 -31 55 -8 9 -16 45 -19 80 -5 56 -2 73 25 134 17 39 35 69 41 67 5 -1
9 3 8 9 -2 7 12 18 30 26 32 13 33 13 22 -7 -6 -11 -20 -24 -31 -31 -34 -18
-79 -125 -79 -190 0 -37 5 -61 15 -69 8 -6 17 -22 21 -33 4 -12 24 -59 45
-105 33 -71 53 -97 129 -172 49 -48 90 -93 90 -98 0 -5 6 -14 13 -20 10 -9 15
1 23 43 8 43 7 55 -3 55 -7 0 -10 -7 -7 -15 8 -19 -23 -32 -39 -16 -9 10 -8
15 6 22 9 6 17 15 17 22 0 7 9 29 19 49 l20 36 -38 -5 c-50 -7 -60 10 -25 42
15 14 25 26 23 28 -2 1 -21 10 -41 20 -43 19 -42 34 3 61 36 21 25 36 -28 36
-43 0 -42 16 3 42 l37 22 -23 18 c-12 10 -28 18 -35 18 -14 0 -15 36 -1 58 4
7 2 12 -3 12 -22 0 -10 20 20 35 25 13 28 19 18 31 -6 8 -16 14 -21 14 -19 0
-108 -105 -108 -128 0 -13 -7 -36 -15 -52 -18 -35 -11 -75 17 -106 10 -12 21
-39 25 -60 3 -21 10 -47 14 -56 5 -10 5 -19 0 -23 -5 -3 -13 5 -17 17 -11 30
-11 34 -13 62 0 13 -18 43 -40 67 -38 43 -55 90 -66 181 -8 72 49 168 100 168
25 0 25 1 10 29 -21 42 -29 44 -78 23 -35 -15 -47 -28 -60 -61 -9 -22 -21 -41
-27 -41 -6 0 1 21 14 48 16 31 35 53 57 63 l32 15 -34 13 c-19 7 -46 19 -61
27 -14 8 -39 14 -55 14 l-28 0 25 -20z"/>
<path d="M915 1348 c-27 -11 -61 -22 -74 -25 l-24 -6 24 -14 c23 -13 22 -14
-14 -8 -21 3 -45 9 -53 12 -8 3 -14 -1 -14 -8 0 -11 -3 -11 -10 1 -8 13 -10
13 -10 -2 0 -11 -10 -20 -27 -23 -46 -10 -58 -20 -61 -53 -3 -27 -8 -32 -39
-38 -37 -7 -37 -9 -18 -70 5 -17 2 -23 -19 -28 -21 -5 -26 -12 -26 -38 0 -32
-9 -34 -14 -2 -3 23 -26 31 -26 9 0 -9 15 -29 32 -46 l32 -29 -23 -16 c-20
-14 -22 -22 -17 -53 4 -20 9 -71 11 -114 5 -98 12 -122 30 -107 20 16 13 115
-10 140 -10 11 -14 20 -8 20 5 0 26 -18 47 -40 20 -22 41 -40 46 -40 6 0 10
-6 10 -14 0 -16 108 -41 138 -32 11 4 42 -2 71 -14 28 -11 51 -17 51 -14 0 20
-24 44 -46 44 -14 0 -38 7 -54 15 -16 9 -50 18 -75 22 -32 4 -43 9 -36 16 7 7
-3 26 -33 61 -53 63 -60 82 -58 173 2 52 8 82 22 105 10 18 31 54 46 80 15 26
33 49 40 52 20 8 17 -11 -5 -35 -10 -11 -31 -45 -47 -76 -24 -47 -28 -69 -29
-140 -1 -82 -1 -84 38 -136 24 -32 57 -61 85 -76 l47 -23 -22 24 c-33 35 -28
41 7 8 16 -15 42 -30 59 -33 34 -7 101 2 118 15 6 5 33 13 60 16 l48 7 -45 30
c-28 19 -46 40 -48 54 -2 13 -12 37 -23 55 -10 17 -19 41 -19 54 0 13 -5 32
-10 42 -6 11 -15 56 -21 100 l-10 81 51 70 c46 63 48 69 28 68 -13 0 -45 -10
-73 -21z m-31 -44 c3 -9 6 -24 6 -35 0 -16 -5 -18 -27 -13 l-28 7 20 -22 c16
-19 17 -24 5 -31 -8 -6 -27 -10 -42 -10 -36 0 -44 -16 -13 -24 24 -6 25 -8 10
-29 -20 -28 -19 -34 4 -42 28 -9 22 -45 -9 -57 l-25 -10 23 -9 c27 -10 28 -25
3 -41 -18 -11 -17 -13 20 -29 44 -20 49 -33 19 -49 -26 -14 -17 -30 16 -30 17
0 24 -6 24 -19 0 -11 -6 -21 -12 -24 -23 -8 -1 -18 41 -20 24 -1 37 -5 32 -10
-14 -14 -111 2 -111 18 0 7 7 15 15 19 26 9 17 26 -14 26 -39 0 -50 19 -23 40
21 17 21 17 -19 33 -44 17 -49 31 -17 48 21 11 21 12 -10 25 -40 16 -40 28 -2
44 39 16 38 28 -5 36 -38 7 -49 36 -17 49 16 6 16 8 -3 21 -19 14 -19 16 -2
28 9 8 36 16 59 20 l41 7 -22 22 c-29 32 -27 37 15 37 31 0 35 3 29 20 -7 24
10 27 19 4z"/>
<path d="M2465 1298 c-9 -14 -11 -24 -5 -26 5 -2 10 -8 10 -13 0 -4 -6 -6 -14
-3 -8 3 -17 1 -21 -5 -3 -6 1 -14 9 -17 23 -9 19 -23 -4 -17 -22 6 -50 -12
-50 -32 0 -8 12 -17 27 -22 l26 -9 -29 -27 c-16 -15 -33 -27 -39 -27 -5 0 2
11 17 24 24 22 25 24 8 29 -20 5 -40 -10 -40 -30 0 -7 -9 -13 -20 -13 -13 0
-18 -5 -14 -15 4 -11 2 -13 -9 -9 -9 3 -21 -3 -30 -16 -9 -13 -17 -17 -22 -11
-3 6 -18 11 -32 11 -21 0 -24 -2 -13 -15 15 -18 -1 -20 -18 -3 -9 9 -15 9 -23
1 -16 -16 -3 -43 20 -43 23 0 34 -28 25 -64 -5 -21 -2 -27 21 -36 14 -5 39
-10 55 -10 27 0 29 3 35 48 3 26 9 59 13 73 9 34 103 116 163 141 37 16 47 25
47 44 0 17 -6 24 -20 24 -11 0 -16 5 -13 11 4 6 4 26 1 45 -8 41 -36 46 -61
12z"/>
<path d="M1509 1194 c-26 -13 -30 -35 -15 -74 4 -9 -4 -26 -18 -41 l-24 -26
25 -12 c14 -6 22 -17 19 -24 -3 -6 -9 -20 -12 -29 -3 -9 -18 -21 -33 -26 -28
-10 -22 -15 32 -26 30 -7 35 -30 12 -57 -15 -15 -14 -17 9 -23 14 -3 30 -15
36 -25 8 -15 5 -22 -16 -35 -24 -17 -25 -40 -1 -31 7 3 18 1 26 -4 12 -8 11
-15 -7 -46 -25 -41 -26 -45 -13 -45 5 0 13 10 16 23 4 12 20 43 36 69 l29 48
-35 67 c-25 48 -35 83 -36 118 -1 28 -6 74 -12 103 -7 38 -7 60 2 79 15 32 12
35 -20 17z"/>
<path d="M2135 980 c-3 -5 -1 -11 5 -15 5 -3 10 -11 10 -17 0 -7 -5 -6 -15 2
-20 17 -40 3 -23 -18 11 -13 11 -15 -4 -9 -9 3 -22 -1 -28 -9 -10 -11 -9 -14
9 -14 11 0 21 -5 21 -11 0 -7 -11 -9 -31 -5 -35 7 -69 -8 -69 -29 0 -11 -8
-13 -30 -9 -22 5 -31 2 -36 -10 -3 -9 -9 -14 -13 -12 -4 3 -13 1 -20 -3 -10
-6 -9 -12 3 -24 15 -15 15 -17 -5 -27 -11 -7 -23 -9 -26 -6 -3 3 2 8 11 12 13
5 14 9 5 20 -13 16 -39 19 -39 5 0 -5 -9 -7 -20 -4 -16 4 -20 0 -20 -20 0 -14
8 -43 18 -66 l18 -40 34 17 c20 10 42 33 55 57 12 24 39 52 70 72 46 30 56 33
131 33 91 0 107 11 75 52 -13 15 -17 33 -14 54 5 29 4 31 -31 32 -19 1 -38 -3
-41 -8z"/>
<path d="M608 673 c-21 -5 -21 -5 -6 -38 10 -22 8 -30 -12 -57 -12 -17 -18
-28 -12 -24 7 4 9 -5 5 -29 -4 -23 -2 -35 6 -35 6 0 11 11 11 25 0 14 5 25 11
25 5 0 8 -4 5 -9 -9 -14 4 -41 20 -41 10 0 12 8 7 32 -4 22 -3 29 5 24 7 -4
12 -16 12 -27 0 -12 7 -19 20 -19 14 0 20 7 20 21 0 18 3 19 15 9 15 -13 35
-6 35 13 0 12 20 14 175 19 67 2 81 -2 181 -42 62 -26 116 17 72 57 -13 11
-18 13 -16 4 2 -7 -3 -16 -9 -18 -21 -8 -15 36 7 49 11 7 20 20 20 30 0 13 -7
16 -32 14 -56 -5 -86 -17 -91 -37 -6 -24 -27 -25 -27 -1 0 15 -14 17 -153 17
-138 1 -156 3 -194 23 -43 23 -45 23 -75 15z"/>
</g>
</svg>
