<?xml version="1.0" encoding="UTF-8" ?>
<!DOCTYPE svg PUBLIC "-//W3C//DTD SVG 1.1//EN" "http://www.w3.org/Graphics/SVG/1.1/DTD/svg11.dtd">
<svg width="655pt" height="232pt" viewBox="0 0 655 232" version="1.1" xmlns="http://www.w3.org/2000/svg">
<path fill="#ffffff" d=" M 0.00 0.00 L 655.00 0.00 L 655.00 232.00 L 0.00 232.00 L 0.00 0.00 Z" />
<path fill="#030303" d=" M 34.75 44.37 C 38.50 43.28 42.37 44.53 46.16 43.80 C 50.89 43.82 55.64 44.13 60.38 44.00 C 60.37 44.55 60.35 45.65 60.34 46.20 C 60.47 45.67 60.73 44.59 60.87 44.05 C 69.17 44.00 77.74 43.23 85.60 46.50 C 85.30 48.55 84.01 50.41 81.83 50.69 C 80.16 48.27 77.56 46.89 75.12 45.42 C 70.82 45.46 66.42 44.98 62.26 46.29 C 61.68 47.17 61.17 48.08 60.71 49.03 C 60.06 49.14 58.75 49.37 58.09 49.48 C 57.75 49.85 57.07 50.58 56.73 50.95 C 54.51 51.70 52.46 52.85 50.40 53.95 C 52.53 55.06 50.85 56.17 49.71 57.26 C 51.37 56.74 53.03 56.24 54.70 55.76 C 53.66 55.32 52.59 54.91 51.52 54.53 C 52.50 53.92 54.48 52.71 55.46 52.10 L 56.19 54.59 C 56.20 53.60 56.20 52.63 56.19 51.65 C 57.37 51.07 58.41 49.77 59.86 50.15 C 61.15 51.11 60.64 52.69 60.57 54.05 C 62.43 55.31 60.82 56.86 60.46 58.41 C 60.73 60.05 61.17 61.65 61.63 63.24 C 61.43 63.49 61.03 64.00 60.83 64.25 C 62.71 65.66 60.98 67.31 60.79 68.97 C 60.94 70.48 61.25 71.96 61.56 73.43 C 60.48 76.69 61.61 80.11 61.14 83.44 C 61.82 83.37 63.16 83.22 63.84 83.15 C 62.86 84.07 61.83 84.93 60.95 85.94 C 60.22 87.99 61.18 90.11 62.01 91.96 C 60.51 94.24 60.50 96.91 60.72 99.53 C 62.92 100.35 65.14 101.12 67.34 101.93 C 74.05 103.11 82.40 100.52 84.71 93.47 C 86.74 87.23 87.60 80.62 87.42 74.06 C 88.46 68.79 85.18 64.01 85.27 58.78 C 88.42 59.41 90.83 56.90 93.64 55.94 C 93.62 55.17 93.57 53.63 93.55 52.86 C 95.47 53.89 96.45 55.85 97.79 57.44 C 97.58 57.77 97.14 58.42 96.92 58.75 C 98.76 61.37 99.00 64.66 100.11 67.60 C 99.53 68.19 98.89 68.70 98.18 69.13 C 96.53 69.67 94.95 70.38 93.37 71.09 C 94.62 73.88 89.91 73.86 88.56 75.39 C 89.64 75.80 90.72 76.22 91.78 76.67 C 90.93 77.31 89.24 78.58 88.39 79.22 C 91.94 78.70 94.35 75.53 97.93 75.05 C 97.78 74.61 97.47 73.73 97.32 73.29 L 98.81 72.72 C 98.85 72.15 98.94 71.01 98.98 70.44 C 99.36 70.46 99.74 70.49 100.13 70.52 C 100.15 71.61 100.21 73.77 100.23 74.85 C 100.98 74.95 102.46 75.14 103.20 75.23 C 100.81 77.47 99.29 80.33 98.99 83.62 C 98.32 85.02 97.71 86.45 97.21 87.92 C 94.61 91.97 91.94 96.28 87.60 98.66 C 83.92 100.62 80.27 103.16 75.94 103.23 C 71.26 103.85 66.72 101.86 62.03 102.21 C 57.38 102.48 52.66 101.52 48.08 102.68 C 44.81 103.37 41.45 103.48 38.13 103.78 C 38.16 103.50 38.23 102.95 38.27 102.68 C 40.95 102.25 43.64 101.83 46.33 101.43 C 48.24 99.09 48.66 96.13 49.16 93.26 C 48.45 93.24 47.05 93.21 46.35 93.19 C 47.14 92.05 47.97 90.93 48.80 89.81 C 48.04 89.42 46.53 88.63 45.78 88.24 C 46.88 86.96 49.12 86.09 48.71 84.04 C 48.62 80.09 48.57 76.13 48.32 72.19 C 50.55 71.03 52.74 69.77 55.20 69.14 C 56.58 68.28 58.00 67.48 59.40 66.65 C 59.21 65.50 59.03 64.34 58.84 63.19 C 59.40 67.11 54.84 66.87 52.35 68.22 C 50.57 69.07 48.57 72.30 46.55 70.18 C 47.00 69.55 47.89 68.29 48.33 67.66 C 48.26 64.86 48.33 61.99 47.30 59.34 C 49.18 57.44 48.92 54.74 48.83 52.27 L 46.60 53.18 C 47.09 52.12 48.07 50.00 48.55 48.94 C 45.48 44.08 38.87 47.28 34.75 44.37 Z" />
<path fill="#030303" d=" M 456.50 44.29 C 460.33 43.33 464.24 44.51 468.10 43.78 C 476.73 44.12 485.37 44.06 494.01 43.98 C 501.08 43.89 508.63 45.99 513.53 51.34 C 514.76 52.80 516.43 53.72 517.87 54.93 C 518.81 56.87 519.17 59.01 519.91 61.02 C 520.43 62.85 520.96 64.68 521.56 66.48 C 521.22 69.28 521.79 72.06 522.09 74.83 C 522.80 74.97 524.23 75.24 524.94 75.38 C 523.82 76.61 522.74 77.85 521.66 79.10 C 521.42 80.60 521.14 82.10 520.86 83.59 C 520.08 84.93 519.44 86.34 518.97 87.82 C 516.39 92.09 513.50 96.51 508.96 98.89 C 505.46 100.73 501.99 103.12 497.90 103.21 C 493.22 103.90 488.69 101.91 484.02 102.21 C 480.06 102.42 476.09 101.83 472.15 102.26 C 467.88 103.11 463.54 103.76 459.18 103.56 C 462.22 101.17 467.31 103.22 469.37 99.49 C 470.40 97.66 470.33 95.43 470.95 93.45 C 470.31 93.34 469.02 93.13 468.37 93.03 C 469.00 91.95 469.65 90.89 470.32 89.84 C 469.39 89.26 468.51 88.68 467.64 88.05 C 472.25 86.01 469.92 80.59 470.16 76.80 C 471.92 76.04 473.68 75.27 475.35 74.33 C 477.87 73.61 480.93 72.57 481.21 69.52 C 480.31 70.32 479.26 70.74 478.06 70.78 C 478.26 70.90 478.65 71.15 478.85 71.27 C 478.82 71.47 478.78 71.89 478.75 72.09 C 476.08 72.95 473.38 73.84 471.32 75.85 C 471.00 74.20 471.34 72.55 471.58 70.91 C 473.34 70.33 475.10 69.74 476.88 69.20 C 478.19 68.36 479.57 67.60 480.94 66.84 C 480.80 65.58 480.69 64.32 480.59 63.07 C 477.18 64.43 473.72 65.74 470.67 67.82 C 473.76 67.80 476.55 66.35 478.96 64.52 C 479.48 65.00 480.00 65.48 480.53 65.96 C 476.78 67.19 472.40 68.20 470.12 71.74 L 468.48 70.00 C 470.99 67.06 470.15 62.83 469.13 59.44 C 470.84 57.42 470.74 54.84 470.60 52.34 C 470.08 52.52 469.06 52.88 468.55 53.06 C 469.12 51.37 469.86 49.72 470.03 47.93 C 466.05 44.65 460.51 47.12 456.50 44.29 Z" />
<path fill="#ffffff" d=" M 484.22 46.23 C 488.34 44.97 492.69 45.46 496.94 45.43 C 504.15 48.64 508.16 56.62 507.43 64.34 C 509.04 66.49 508.96 69.31 509.63 71.82 C 509.26 73.04 508.90 74.26 508.57 75.49 C 509.54 75.34 510.53 75.16 511.51 74.97 C 512.84 73.81 514.45 73.02 516.25 72.98 C 514.00 74.67 511.47 75.92 508.88 77.00 C 509.66 81.40 508.22 85.74 507.46 90.04 C 506.63 94.03 504.78 98.31 500.79 100.01 C 495.67 103.39 489.03 102.31 483.68 100.03 C 481.48 101.04 478.99 100.87 476.65 100.94 C 477.96 99.98 479.31 99.07 480.66 98.17 L 481.14 100.06 C 482.75 97.47 482.11 94.15 484.07 91.69 C 483.69 91.32 482.95 90.57 482.57 90.19 C 482.57 88.53 482.61 86.87 482.82 85.23 C 483.80 84.65 484.78 84.05 485.75 83.44 C 485.04 83.39 483.61 83.30 482.90 83.26 C 483.13 79.90 482.21 76.42 483.53 73.19 C 483.39 72.91 483.10 72.35 482.95 72.07 C 482.75 70.64 482.55 69.22 482.34 67.80 C 482.74 67.40 483.56 66.60 483.97 66.21 C 482.60 65.24 482.38 64.17 483.32 63.00 C 481.41 59.76 483.21 55.96 482.48 52.47 C 482.48 51.68 482.48 50.10 482.47 49.32 C 480.60 50.15 478.75 51.05 476.96 52.04 C 478.34 52.81 479.76 53.51 481.20 54.20 C 479.85 54.43 477.16 54.89 475.82 55.12 C 477.54 56.28 479.63 56.23 481.63 56.25 C 480.28 57.03 478.91 57.77 477.59 58.60 C 476.10 59.16 474.61 59.72 473.11 60.26 C 473.15 60.72 473.23 61.62 473.27 62.07 C 473.86 62.18 475.02 62.40 475.61 62.52 C 475.16 60.21 476.30 60.02 477.98 60.80 C 479.06 60.11 480.14 59.40 481.27 58.77 C 480.24 59.89 479.15 60.94 478.12 62.05 C 475.89 62.98 473.78 64.17 471.47 64.90 C 471.39 64.52 471.24 63.75 471.16 63.37 L 472.80 64.21 C 472.78 63.34 472.74 61.60 472.73 60.73 L 470.71 60.48 C 472.28 59.37 473.90 58.33 475.65 57.50 C 475.65 56.83 475.62 56.15 475.58 55.48 C 474.53 55.96 472.43 56.93 471.37 57.41 C 471.96 56.82 473.13 55.65 473.71 55.06 C 473.24 54.83 472.31 54.35 471.84 54.11 C 472.47 53.83 473.73 53.26 474.37 52.98 C 473.95 52.33 473.55 51.68 473.15 51.02 L 475.26 53.18 L 474.30 50.22 C 474.90 51.13 475.52 52.03 476.16 52.92 L 476.45 51.65 C 478.64 50.60 480.56 48.94 483.10 48.85 L 483.17 47.43 C 483.43 47.13 483.95 46.53 484.22 46.23 Z" />
<path fill="#030303" d=" M 85.39 51.09 C 85.55 49.65 85.68 48.21 85.77 46.76 C 88.57 48.36 91.09 50.38 93.31 52.71 C 92.97 53.45 92.63 54.19 92.28 54.93 C 90.55 55.74 88.83 56.56 87.10 57.36 L 87.65 58.00 C 86.71 58.10 85.78 58.20 84.84 58.30 C 85.52 55.57 83.15 53.45 82.04 51.25 C 83.44 51.13 84.77 51.58 86.06 52.09 C 86.86 51.28 87.64 50.46 88.41 49.63 L 85.39 51.09 Z" />
<path fill="#030303" d=" M 474.09 54.70 C 474.47 53.49 475.38 52.87 476.80 52.83 C 477.82 54.20 475.11 55.50 474.09 54.70 Z" />
<path fill="#ffffff" d=" M 507.65 59.32 C 509.22 56.94 511.94 55.90 514.36 54.62 C 514.71 54.89 515.39 55.44 515.73 55.71 C 513.04 56.93 510.51 58.53 507.65 59.32 Z" />
<path fill="#ffffff" d=" M 49.43 59.97 C 52.69 57.96 56.11 55.96 60.06 55.87 C 57.57 57.71 54.80 59.16 51.82 60.02 C 51.91 60.23 52.09 60.66 52.18 60.87 C 52.50 61.14 53.16 61.68 53.48 61.95 L 54.05 60.58 C 56.00 60.85 57.74 60.01 59.34 59.01 C 58.23 60.18 57.10 61.34 56.13 62.63 C 54.44 62.63 52.87 61.95 51.36 61.24 L 53.37 63.91 C 52.18 64.25 51.00 64.60 49.82 64.96 L 49.84 64.17 L 51.73 64.16 C 51.27 62.61 50.91 60.89 49.43 59.97 Z" />
<path fill="#ffffff" d=" M 94.48 57.24 C 95.16 58.73 95.97 60.17 96.45 61.74 C 93.68 63.57 90.67 65.01 87.57 66.18 C 88.72 64.02 90.14 61.78 92.50 60.77 C 92.03 60.47 91.57 60.16 91.10 59.86 C 90.31 61.72 88.13 61.63 86.53 62.12 C 88.61 59.62 91.89 58.99 94.48 57.24 Z" />
<path fill="#030303" d=" M 225.49 57.48 C 227.53 55.83 230.01 57.31 231.90 58.42 C 232.85 59.77 232.67 61.53 232.97 63.08 C 231.34 63.51 229.66 64.29 227.95 63.79 C 226.55 62.98 225.35 61.89 224.07 60.92 C 223.91 62.27 222.42 63.98 223.80 65.11 C 226.51 66.83 229.02 68.87 231.06 71.36 C 231.87 75.85 233.55 81.17 230.15 85.04 C 224.20 92.66 212.92 93.59 204.62 89.57 C 203.67 90.06 202.73 90.55 201.78 91.05 C 202.29 91.20 203.31 91.49 203.82 91.64 C 203.26 92.33 202.15 93.70 201.59 94.39 C 202.44 94.31 204.15 94.15 205.00 94.07 C 204.66 94.62 203.99 95.72 203.65 96.27 C 207.88 97.59 212.35 97.09 216.71 97.33 L 216.17 99.27 C 216.43 98.84 216.97 97.98 217.24 97.55 C 220.70 97.88 224.17 98.29 227.65 98.47 C 229.08 99.37 230.57 100.17 232.08 100.94 C 233.95 104.70 234.82 108.92 233.40 113.01 C 231.57 117.42 228.18 121.87 223.17 122.69 C 217.10 123.36 210.84 123.66 204.89 122.01 C 204.07 120.52 203.20 119.07 202.12 117.76 C 201.74 116.19 201.27 114.65 200.65 113.16 C 199.64 113.93 198.64 114.71 197.65 115.50 C 198.44 115.68 200.02 116.02 200.81 116.20 C 200.39 116.55 199.56 117.26 199.14 117.61 C 201.09 117.23 202.12 118.12 202.01 120.32 L 202.98 119.39 C 203.16 120.37 203.36 121.35 203.56 122.33 C 201.20 120.34 197.55 119.47 196.78 116.07 C 195.99 111.63 199.87 108.54 203.42 106.85 C 201.39 105.00 199.28 103.24 197.45 101.19 C 195.67 101.64 193.89 102.23 192.04 102.17 C 186.09 101.95 180.14 102.15 174.20 102.32 C 175.46 101.02 177.23 100.57 178.84 99.93 C 179.89 95.71 180.07 91.39 179.71 87.08 L 177.93 87.23 C 181.82 83.44 178.69 77.42 179.48 72.67 C 179.65 71.15 179.52 69.62 179.32 68.10 C 178.47 66.78 177.86 65.33 177.02 64.01 C 173.81 63.31 170.48 64.90 168.77 67.67 C 168.43 67.12 168.09 66.58 167.76 66.03 C 171.79 62.91 176.93 61.12 182.03 62.31 C 185.06 63.61 187.31 66.10 189.25 68.69 C 188.39 70.28 188.86 71.82 189.64 73.29 C 188.70 75.79 189.02 78.45 189.07 81.06 C 189.59 81.03 190.62 80.97 191.14 80.94 C 189.39 82.18 187.59 84.36 189.60 86.38 C 188.47 86.30 187.33 86.23 186.20 86.17 C 184.31 87.92 181.08 88.67 180.70 91.58 C 183.76 92.29 186.19 89.54 187.68 87.22 C 188.15 87.13 189.09 86.95 189.57 86.87 L 188.73 89.20 L 190.80 88.79 C 188.01 91.77 190.07 95.96 189.84 99.54 C 192.17 100.56 194.69 100.76 197.21 100.64 C 196.71 98.51 196.35 96.29 196.74 94.11 C 198.35 91.61 200.93 90.03 203.14 88.13 C 201.47 86.66 199.83 85.14 198.83 83.11 C 198.87 81.20 198.85 79.29 198.75 77.38 C 199.14 77.03 199.93 76.32 200.32 75.97 L 200.95 77.28 C 201.58 77.05 202.83 76.60 203.46 76.37 C 202.44 77.93 201.48 79.53 200.46 81.10 C 201.04 80.85 202.18 80.35 202.76 80.10 C 202.70 80.89 202.59 82.48 202.54 83.27 C 202.05 83.48 201.09 83.89 200.60 84.09 C 202.44 84.34 204.09 83.44 205.86 83.17 C 207.01 84.77 204.57 85.83 203.98 87.15 C 204.72 86.95 206.19 86.55 206.93 86.35 C 206.99 86.98 207.09 88.22 207.15 88.84 C 208.20 89.29 209.25 89.73 210.31 90.16 L 209.90 87.06 C 210.71 87.81 212.32 89.29 213.12 90.03 C 217.78 91.35 221.82 86.56 222.04 82.24 C 222.36 78.03 223.00 73.23 220.48 69.53 C 218.61 66.59 214.78 67.25 211.84 66.60 C 205.49 71.63 209.25 80.30 210.64 86.75 C 208.32 87.24 207.59 84.60 207.34 82.83 C 206.74 82.36 205.54 81.41 204.94 80.94 L 207.25 80.52 C 207.04 79.00 206.63 77.56 204.86 77.35 L 205.89 79.65 L 202.61 79.20 C 203.95 77.98 205.34 76.80 206.78 75.69 C 205.18 75.76 203.59 75.71 202.01 75.43 L 201.38 76.47 C 200.64 76.02 199.91 75.57 199.18 75.11 C 201.03 70.65 205.10 67.60 209.07 65.13 C 213.25 64.75 217.47 64.81 221.66 64.93 C 221.98 62.10 222.59 58.80 225.49 57.48 Z" />
<path fill="#ffffff" d=" M 508.33 61.89 C 510.89 59.53 514.21 58.35 517.36 57.01 C 516.15 58.44 513.62 58.92 513.12 60.82 C 514.84 60.54 516.24 59.33 517.82 58.63 C 517.82 59.45 517.82 61.11 517.83 61.93 C 515.26 63.70 512.36 64.90 509.58 66.27 C 510.11 64.90 510.98 63.62 511.16 62.13 L 510.87 61.59 L 508.33 61.89 Z" />
<path fill="#ffffff" d=" M 228.31 59.12 C 231.18 57.47 228.58 62.43 228.31 59.12 Z" />
<path fill="#030303" d=" M 323.84 64.21 C 329.46 60.70 336.53 62.44 342.11 65.16 C 344.96 65.98 345.66 69.36 348.29 70.54 C 349.55 73.32 350.48 76.23 351.47 79.12 C 351.33 80.61 351.16 82.12 351.52 83.60 C 349.39 89.05 348.19 95.38 343.43 99.27 C 341.57 100.51 339.47 102.31 337.08 101.48 C 334.28 105.33 328.89 104.25 325.05 102.84 C 319.57 100.84 315.69 96.35 312.55 91.63 C 312.23 88.29 311.73 84.97 311.53 81.62 C 312.16 80.14 312.81 78.66 313.45 77.17 L 311.61 76.67 C 313.74 74.75 315.54 72.52 317.05 70.09 C 317.65 70.90 318.25 71.70 318.87 72.50 C 318.34 72.98 317.29 73.93 316.77 74.40 C 318.72 73.62 320.61 72.71 322.52 71.82 C 322.26 70.61 322.44 69.49 323.07 68.46 C 323.60 67.11 325.36 65.57 323.84 64.21 Z" />
<path fill="#030303" d=" M 533.19 69.12 C 536.79 65.45 541.56 61.53 547.04 62.34 C 550.05 62.42 552.93 63.38 555.84 64.07 C 555.14 64.54 554.44 65.00 553.75 65.47 C 555.75 66.76 558.72 69.96 554.69 71.21 C 553.79 69.18 552.97 67.12 552.00 65.12 C 548.13 63.75 543.97 64.20 540.76 66.84 C 541.72 66.81 543.65 66.76 544.61 66.73 C 542.92 67.80 541.23 68.82 539.60 69.98 C 539.87 70.41 540.41 71.27 540.68 71.70 C 540.22 71.96 539.31 72.49 538.85 72.76 C 539.14 73.24 539.72 74.19 540.01 74.67 L 538.81 75.29 C 539.03 75.55 539.48 76.07 539.71 76.33 C 538.40 77.95 537.91 79.80 540.62 80.08 C 540.00 80.63 538.74 81.74 538.12 82.30 C 538.91 82.55 540.50 83.05 541.30 83.30 C 540.44 83.85 539.60 84.43 538.79 85.02 C 539.43 85.62 540.09 86.20 540.78 86.77 C 539.99 87.43 539.21 88.10 538.44 88.77 C 539.09 88.94 540.40 89.28 541.05 89.45 C 538.69 90.97 538.61 92.13 540.81 92.90 C 539.51 94.19 539.03 95.77 539.59 97.64 C 539.01 97.43 537.85 97.00 537.27 96.78 C 537.39 95.75 537.53 94.73 537.69 93.71 C 535.93 94.80 534.13 95.81 532.43 96.98 C 534.37 96.91 536.42 96.18 538.23 97.28 L 535.69 98.26 C 536.50 98.90 537.32 99.54 538.15 100.18 C 538.75 99.12 539.38 98.08 540.08 97.08 C 540.74 100.99 545.28 103.77 548.96 101.86 C 553.98 99.73 555.43 93.80 555.63 88.84 C 554.86 88.63 554.11 88.41 553.37 88.19 C 556.84 85.75 554.84 81.29 555.44 77.73 C 554.81 77.64 553.56 77.46 552.94 77.36 C 553.63 76.66 554.32 75.97 555.03 75.27 C 554.88 74.26 554.57 72.23 554.41 71.21 C 555.39 71.27 557.34 71.37 558.31 71.43 C 557.60 72.28 556.20 73.99 555.49 74.85 C 557.08 74.24 558.67 73.60 560.25 72.92 C 558.83 74.34 557.45 75.79 556.13 77.29 C 556.64 77.68 557.68 78.46 558.19 78.85 C 557.65 79.47 556.58 80.70 556.04 81.31 C 559.97 81.83 561.79 77.71 564.78 76.00 C 563.83 74.72 562.92 73.42 562.03 72.11 C 561.19 69.54 558.96 70.13 556.87 70.80 C 557.49 70.00 558.74 68.40 559.37 67.60 C 558.76 67.78 557.54 68.14 556.93 68.32 C 556.75 67.40 556.38 65.54 556.20 64.62 C 559.83 65.11 560.57 69.02 563.47 70.52 C 564.72 73.34 565.75 76.23 566.66 79.18 C 566.55 80.68 566.51 82.18 566.68 83.68 C 564.73 89.20 563.31 95.48 558.57 99.36 C 556.72 100.58 554.62 102.28 552.27 101.48 C 550.25 104.67 545.95 104.42 542.75 103.60 C 536.21 102.08 531.21 97.12 527.81 91.55 C 527.46 88.31 527.04 85.07 526.58 81.85 C 527.45 80.37 528.07 78.76 528.73 77.18 C 528.26 77.03 527.32 76.74 526.84 76.59 C 529.07 74.77 530.78 72.47 532.23 70.00 C 533.28 71.23 533.55 73.01 531.97 73.96 L 531.46 74.45 C 531.81 75.15 532.53 76.55 532.89 77.24 L 530.21 76.20 C 530.22 77.10 530.24 78.90 530.24 79.80 C 532.31 78.42 534.34 77.00 536.32 75.48 C 536.25 75.88 536.10 76.68 536.03 77.08 C 534.71 77.42 533.68 78.17 532.95 79.30 C 530.87 80.85 527.82 81.58 527.53 84.71 C 528.41 84.30 530.17 83.49 531.05 83.09 C 529.81 84.37 528.62 85.72 527.57 87.15 C 531.22 85.57 534.88 83.58 537.47 80.47 C 537.46 79.60 537.44 77.85 537.43 76.98 L 538.23 76.57 C 537.60 76.02 536.98 75.46 536.38 74.89 L 538.02 74.51 L 537.75 73.00 C 536.44 73.42 535.03 75.34 533.77 74.83 C 533.52 72.59 536.91 72.69 538.28 71.59 C 537.31 71.17 536.37 70.74 535.43 70.28 C 537.18 69.80 538.64 68.87 539.82 67.50 C 537.93 67.88 536.34 68.91 535.02 70.27 C 534.41 69.89 533.80 69.50 533.19 69.12 Z" />
<path fill="#030303" d=" M 594.44 62.56 C 597.70 61.95 601.64 61.25 604.43 63.54 C 606.55 64.97 608.15 66.99 609.78 68.93 C 609.49 69.42 608.90 70.40 608.60 70.89 C 608.91 71.50 609.54 72.72 609.85 73.32 C 608.93 75.81 609.32 78.47 609.20 81.06 C 609.70 81.02 610.72 80.94 611.23 80.91 C 609.40 82.32 608.87 84.48 608.56 86.67 C 609.90 86.21 611.24 85.71 612.59 85.21 C 611.23 86.41 609.38 87.20 608.71 89.00 C 612.62 87.38 609.56 90.66 609.50 92.00 C 609.67 93.61 609.86 95.21 610.07 96.82 C 609.42 96.68 608.11 96.41 607.46 96.27 L 606.04 98.07 L 606.55 94.82 C 607.70 94.29 608.32 93.37 608.40 92.08 L 605.33 93.39 C 605.98 92.53 607.26 90.82 607.91 89.96 C 607.66 90.03 607.17 90.19 606.93 90.26 C 605.47 91.90 603.47 92.82 601.57 93.81 C 601.51 94.41 601.40 95.59 601.35 96.19 C 602.90 95.47 604.37 93.35 606.16 94.99 C 604.23 96.18 601.77 97.00 600.84 99.29 C 600.32 98.87 599.80 98.45 599.29 98.03 C 600.39 94.57 600.44 90.88 599.79 87.33 C 599.35 87.06 598.48 86.53 598.04 86.26 C 598.50 86.20 599.41 86.09 599.87 86.03 C 600.22 79.79 599.55 73.55 599.68 67.29 C 599.37 67.35 598.76 67.46 598.45 67.51 C 598.56 65.91 598.13 63.61 595.99 63.86 C 590.90 63.52 588.22 68.42 586.18 72.27 C 586.05 74.56 585.99 76.86 585.88 79.15 C 586.07 79.40 586.45 79.91 586.63 80.16 C 585.20 83.74 585.90 87.78 586.35 91.50 C 586.12 94.19 586.43 96.94 587.37 99.48 C 588.58 99.88 589.81 100.25 591.05 100.57 C 590.88 100.96 590.53 101.75 590.35 102.14 C 583.60 102.08 576.81 102.38 570.09 101.86 C 572.41 100.61 574.94 99.65 576.79 97.68 C 576.59 96.68 576.20 94.69 576.00 93.69 C 577.30 93.06 578.65 92.56 580.03 92.13 C 579.23 93.62 578.44 95.12 577.67 96.63 C 579.90 95.93 582.05 93.72 584.50 95.15 C 584.00 93.27 584.40 91.37 584.67 89.49 L 581.38 90.99 C 582.56 89.53 583.73 88.02 584.76 86.43 C 584.39 86.28 583.63 85.99 583.26 85.84 C 582.40 85.63 581.54 85.45 580.68 85.30 C 582.27 86.85 581.75 88.45 579.55 88.80 L 579.79 87.00 C 579.31 87.35 578.33 88.03 577.84 88.38 C 578.78 88.82 579.73 89.27 580.67 89.75 C 579.20 90.72 577.57 92.47 575.76 91.20 C 576.02 89.58 576.25 87.95 576.46 86.32 L 577.90 87.10 C 576.84 86.23 575.78 85.36 574.74 84.47 C 576.36 82.85 576.28 80.66 576.24 78.56 C 576.85 78.62 578.06 78.75 578.67 78.82 C 580.28 77.47 581.83 75.96 583.84 75.19 C 581.63 77.52 579.01 79.47 577.17 82.14 C 578.91 81.78 580.48 81.02 581.87 79.88 L 582.54 79.43 L 583.52 79.16 C 583.77 77.29 583.80 75.40 583.97 73.52 C 583.26 73.17 581.86 72.47 581.16 72.12 C 579.65 72.94 578.16 73.78 576.91 74.96 C 578.85 74.59 580.62 73.71 582.48 73.05 C 581.87 74.96 580.41 76.08 578.45 76.41 L 578.61 77.09 C 577.66 77.18 576.72 77.27 575.78 77.36 C 575.27 73.68 576.88 70.06 575.76 66.43 C 573.88 65.53 572.06 64.39 569.91 64.41 C 569.97 64.13 570.09 63.56 570.15 63.28 C 575.53 63.21 580.92 63.54 586.26 62.86 C 586.75 63.22 587.72 63.95 588.21 64.31 C 587.38 65.33 586.56 66.36 585.80 67.43 C 589.03 66.47 591.06 63.23 594.44 62.56 Z" />
<path fill="#030303" d=" M 149.24 64.44 C 149.46 63.62 149.99 63.25 150.84 63.32 C 155.94 63.02 161.11 63.83 166.15 62.65 C 166.58 63.10 167.43 64.00 167.85 64.44 C 165.37 65.83 166.21 67.74 167.80 69.35 C 167.33 70.06 166.39 71.48 165.92 72.18 C 165.76 74.66 165.80 77.15 165.66 79.63 L 166.56 79.88 C 165.56 81.40 165.49 83.14 165.78 84.87 C 165.67 86.69 165.57 88.51 165.48 90.33 C 166.05 90.33 167.19 90.34 167.76 90.34 C 167.17 91.25 166.47 92.09 165.82 92.95 C 166.10 94.99 166.38 97.03 166.85 99.04 C 168.16 100.09 169.94 100.29 171.42 101.04 C 165.85 103.68 159.47 101.11 153.61 102.36 C 152.64 102.15 150.70 101.71 149.73 101.49 C 151.17 100.91 152.64 100.43 154.12 99.97 C 154.89 99.13 155.66 98.29 156.43 97.46 C 155.79 93.70 155.97 89.90 155.95 86.12 C 155.65 85.63 155.06 84.64 154.77 84.15 C 157.04 81.20 155.80 77.30 155.48 73.94 C 155.89 71.46 155.96 68.97 155.43 66.49 C 154.30 65.90 153.19 65.28 152.09 64.63 C 151.38 64.58 149.95 64.49 149.24 64.44 Z" />
<path fill="#ffffff" d=" M 179.06 63.71 C 180.44 63.25 180.99 63.71 180.71 65.09 C 179.31 65.55 178.76 65.09 179.06 63.71 Z" />
<path fill="#030303" d=" M 245.13 68.00 C 248.54 64.88 252.97 62.83 257.62 62.60 C 259.28 63.38 261.04 63.87 262.88 64.09 C 261.81 64.92 260.76 65.76 259.68 66.56 L 259.81 64.92 C 255.98 64.05 252.54 66.75 252.05 70.53 C 251.05 71.55 250.90 74.13 249.11 73.85 C 248.32 72.56 248.40 71.02 248.12 69.59 L 246.84 71.06 C 246.48 71.13 245.75 71.29 245.39 71.37 C 244.80 72.40 244.23 73.44 243.46 74.35 C 242.70 75.12 242.71 77.64 241.21 76.79 C 241.08 76.26 240.81 75.18 240.68 74.64 C 242.44 72.61 243.50 70.11 245.13 68.00 Z" />
<path fill="#030303" d=" M 351.84 64.66 C 357.49 63.29 363.34 64.15 369.05 63.38 C 369.47 63.79 370.33 64.62 370.75 65.04 C 367.20 64.77 364.27 66.85 361.43 68.67 C 362.54 68.53 363.66 68.40 364.79 68.29 C 364.83 68.83 364.89 69.90 364.92 70.43 C 364.06 70.33 362.33 70.14 361.47 70.05 C 361.80 73.21 361.50 76.38 361.44 79.55 L 363.84 79.62 C 363.69 79.16 363.39 78.25 363.24 77.79 C 363.66 78.19 364.49 78.98 364.90 79.37 C 364.83 78.84 364.69 77.78 364.62 77.25 L 366.43 76.84 L 363.22 74.73 C 364.43 75.03 366.85 75.63 368.06 75.93 L 367.82 74.77 C 367.24 74.85 366.06 74.99 365.48 75.06 C 366.59 74.03 367.71 73.00 368.74 71.88 C 367.36 72.35 365.98 72.83 364.61 73.31 C 363.12 70.78 365.68 70.20 367.53 69.36 C 367.57 69.08 367.65 68.52 367.70 68.24 L 365.08 69.92 C 365.37 67.87 366.82 66.44 368.86 66.18 C 369.40 68.60 368.95 71.12 369.08 73.58 C 368.90 76.86 369.52 80.11 369.53 83.39 C 369.43 85.00 369.52 86.63 369.23 88.24 C 369.22 92.55 369.11 97.28 371.63 101.01 C 376.47 100.90 379.57 97.20 382.10 93.56 C 381.81 93.37 381.21 93.00 380.92 92.81 C 381.36 91.90 382.25 90.08 382.70 89.16 C 382.12 89.29 380.96 89.55 380.38 89.67 C 381.30 88.69 382.55 87.63 382.18 86.10 C 381.61 81.06 382.35 75.99 381.98 70.94 C 382.04 69.42 381.22 68.22 379.96 67.43 C 380.09 67.13 380.35 66.53 380.49 66.23 C 378.53 65.98 376.20 66.26 375.05 64.28 C 380.31 63.52 385.67 63.89 390.91 62.95 C 391.27 64.25 391.67 65.56 392.22 66.80 C 391.46 67.86 391.43 68.97 392.19 70.04 C 391.44 71.42 391.59 73.95 389.52 73.91 C 390.59 71.66 388.48 71.04 387.34 69.95 C 388.24 69.59 390.06 68.87 390.96 68.50 C 388.10 68.90 385.21 69.57 382.72 71.10 L 383.41 71.56 C 383.83 71.68 384.67 71.91 385.09 72.03 L 385.09 72.56 C 384.10 73.41 383.17 74.31 382.28 75.25 C 383.36 74.88 384.44 74.49 385.52 74.09 C 386.64 73.12 387.81 72.20 389.03 71.34 C 388.93 72.25 388.82 73.16 388.71 74.08 C 386.81 74.59 385.00 75.34 383.13 75.93 L 383.17 77.40 C 383.74 77.30 384.89 77.10 385.47 77.00 C 383.90 78.21 382.45 79.89 383.88 81.86 C 383.64 82.31 383.16 83.21 382.92 83.66 L 384.53 83.29 C 383.79 84.82 383.47 86.43 383.58 88.10 C 383.61 89.57 384.42 90.81 385.17 92.00 L 382.93 93.11 C 385.83 93.24 389.01 91.51 390.50 89.03 C 388.59 89.37 386.72 91.37 384.69 90.25 C 386.48 89.38 388.45 88.87 390.40 88.45 C 390.13 85.81 390.13 83.16 390.00 80.52 C 388.66 81.68 387.30 82.83 385.81 83.80 C 387.07 82.37 388.58 81.19 389.89 79.82 C 389.94 78.16 389.87 76.50 389.69 74.85 C 390.07 74.81 390.84 74.74 391.22 74.70 C 391.93 81.77 391.34 88.88 391.31 95.98 C 391.63 97.55 392.77 98.78 393.44 100.21 C 395.74 100.39 398.05 100.21 400.36 100.21 C 397.73 102.66 393.94 101.83 390.70 102.23 C 390.71 101.28 390.74 100.33 390.77 99.38 L 392.04 99.24 C 391.29 99.10 389.78 98.80 389.03 98.65 L 389.05 100.07 C 388.46 98.86 387.82 97.67 387.20 96.48 C 386.01 97.27 384.78 98.01 383.65 98.86 C 383.79 99.55 384.08 100.93 384.22 101.62 C 384.07 99.23 387.86 97.17 387.85 100.52 L 389.67 100.20 C 389.52 100.69 389.24 101.67 389.10 102.16 C 387.00 102.10 384.94 102.52 382.89 102.89 C 382.75 100.87 382.60 98.86 382.46 96.85 C 383.81 96.35 387.43 96.24 386.79 94.15 C 384.96 94.88 383.38 96.18 381.47 96.74 C 378.87 99.76 375.36 102.86 371.08 102.42 C 368.39 101.92 365.58 101.11 363.47 99.28 C 361.86 97.50 360.87 95.27 359.43 93.36 C 359.68 92.69 359.96 92.04 360.26 91.39 C 360.11 88.73 360.20 86.02 359.48 83.43 C 359.59 79.31 360.38 75.22 360.04 71.09 C 359.40 71.12 358.12 71.17 357.47 71.19 C 358.29 70.28 359.12 69.37 359.97 68.48 C 359.36 67.60 358.76 66.71 358.18 65.83 C 355.94 66.17 353.75 65.89 351.84 64.66 Z" />
<path fill="#030303" d=" M 408.30 62.97 C 412.98 62.19 417.68 63.77 421.44 66.55 C 423.15 65.55 424.69 64.32 426.13 62.97 C 426.04 65.03 425.91 67.08 425.81 69.14 C 424.56 69.28 423.36 69.59 422.22 70.07 C 423.37 70.40 424.58 70.35 425.76 70.56 C 425.82 72.25 425.79 73.93 425.69 75.62 C 421.24 72.85 420.92 65.65 415.01 64.94 C 409.30 62.45 404.34 69.81 406.41 74.79 C 409.57 77.10 413.62 78.03 417.48 78.23 C 419.37 79.61 421.71 79.68 423.96 79.71 C 425.33 81.63 426.63 83.61 428.21 85.38 C 428.59 87.02 428.13 88.51 427.13 89.82 L 426.41 86.43 C 425.27 87.74 424.15 89.07 423.06 90.41 C 423.97 90.57 425.78 90.87 426.69 91.02 C 425.92 91.98 425.29 93.03 424.81 94.15 C 426.10 93.06 426.89 91.56 427.65 90.08 C 428.10 90.07 428.99 90.04 429.43 90.03 C 428.91 93.26 429.39 96.81 427.47 99.66 C 424.24 103.53 418.81 105.66 413.90 103.87 C 410.99 103.24 409.08 100.79 406.58 99.40 C 403.91 98.61 402.88 101.68 401.34 103.19 C 401.51 97.44 400.65 91.38 402.89 85.92 C 403.64 87.32 404.38 88.74 405.16 90.13 C 405.82 92.96 405.80 96.12 407.40 98.61 C 410.50 100.89 414.27 102.37 418.05 103.02 C 424.79 102.92 426.37 91.85 420.43 89.42 C 418.75 88.32 416.70 88.21 414.77 88.09 C 414.83 87.33 414.89 86.58 414.97 85.83 C 415.73 85.59 417.26 85.11 418.03 84.87 C 418.33 84.17 418.62 83.47 418.92 82.77 C 418.10 82.67 416.46 82.49 415.64 82.40 C 413.72 83.31 411.72 84.04 409.75 84.81 C 411.32 84.94 413.64 83.13 414.75 84.60 L 414.42 85.16 C 414.38 85.84 414.30 87.19 414.25 87.86 C 411.71 86.85 409.08 86.07 406.36 85.83 C 402.11 84.68 401.84 79.60 401.40 75.99 C 402.19 71.05 405.21 66.78 408.30 62.97 Z" />
<path fill="#ffffff" d=" M 599.26 63.66 C 600.63 63.22 601.19 63.68 600.94 65.05 C 599.56 65.53 599.00 65.07 599.26 63.66 Z" />
<path fill="#ffffff" d=" M 50.61 67.42 C 51.58 65.50 54.64 64.83 56.64 64.25 C 55.84 66.08 52.72 67.44 50.61 67.42 Z" />
<path fill="#030303" d=" M 115.22 65.34 C 121.66 62.17 129.22 64.02 135.62 66.40 C 138.07 69.34 138.48 73.06 138.87 76.71 C 139.42 76.97 140.52 77.48 141.07 77.73 C 140.53 77.77 139.45 77.85 138.91 77.89 C 138.72 81.93 137.99 85.93 138.25 89.98 C 138.41 90.28 138.75 90.87 138.91 91.16 C 137.67 93.60 138.23 96.46 138.52 99.06 C 138.86 101.30 141.76 103.78 143.77 101.75 C 147.63 97.73 144.60 92.02 146.26 87.29 C 149.27 90.06 147.71 94.47 147.34 97.97 C 146.43 100.22 145.40 102.87 143.00 103.88 C 138.13 107.18 132.00 103.35 129.27 98.94 C 126.94 101.73 124.11 105.54 120.01 105.04 C 116.12 104.92 112.11 103.55 109.37 100.69 C 107.45 98.74 107.27 95.88 106.63 93.36 C 107.97 90.85 108.68 87.94 110.49 85.70 C 115.27 81.31 122.13 82.82 127.89 81.18 C 127.91 79.25 127.80 77.28 128.51 75.45 C 128.39 75.09 128.13 74.37 128.00 74.01 C 129.75 71.69 129.50 68.89 128.90 66.22 C 126.43 66.03 123.94 65.92 121.51 65.39 C 119.69 66.31 117.65 66.88 116.05 68.19 C 115.72 70.60 119.70 69.87 120.11 72.06 C 121.07 74.20 119.19 76.43 117.68 77.80 C 114.38 80.87 109.02 76.71 108.78 72.93 C 109.62 69.62 112.46 67.15 115.22 65.34 Z" />
<path fill="#ffffff" d=" M 156.88 68.84 C 159.90 67.24 162.65 65.21 165.52 63.35 C 164.74 64.03 163.20 65.39 162.42 66.06 C 163.29 66.73 164.18 67.38 165.07 68.03 C 162.44 69.65 159.86 71.69 156.73 72.17 C 157.94 70.86 159.30 69.64 160.95 68.90 C 161.36 68.61 162.17 68.03 162.58 67.74 C 162.01 67.86 160.88 68.10 160.32 68.22 L 160.95 68.90 C 159.93 68.89 157.89 68.86 156.88 68.84 Z" />
<path fill="#030303" d=" M 275.31 64.96 C 281.37 64.87 287.41 64.34 293.41 63.47 C 293.43 64.36 293.47 66.15 293.49 67.05 C 297.32 65.60 301.60 61.87 305.70 64.50 C 308.28 66.19 308.61 69.51 309.65 72.15 C 308.52 75.05 305.88 77.70 302.54 77.23 C 299.93 75.67 298.00 72.41 299.30 69.37 C 300.33 67.71 302.04 66.64 303.40 65.26 C 299.31 65.14 295.80 67.77 293.75 71.14 C 293.81 72.77 293.26 73.85 292.09 74.36 C 290.11 74.64 288.60 76.06 286.91 76.97 C 286.72 76.56 286.35 75.72 286.17 75.31 C 285.11 76.95 285.37 79.19 283.52 80.44 C 283.45 79.09 283.31 76.40 283.24 75.05 C 284.08 74.19 284.95 73.36 285.81 72.51 C 286.02 72.22 286.45 71.64 286.66 71.35 C 286.56 71.58 286.36 72.03 286.26 72.26 L 288.03 74.31 C 289.10 72.21 290.39 70.24 291.71 68.30 C 290.09 69.20 288.52 70.18 286.96 71.17 L 286.66 71.35 C 286.30 70.54 286.16 69.37 286.23 67.83 C 285.89 69.28 285.56 70.73 285.25 72.18 C 284.95 72.20 284.34 72.23 284.04 72.24 C 283.40 69.77 281.62 67.13 278.92 66.77 C 277.57 66.46 276.18 66.15 275.31 64.96 Z" />
<path fill="#ffffff" d=" M 325.53 66.86 C 328.77 64.16 333.02 63.67 336.89 65.27 C 338.04 67.79 339.40 70.37 339.22 73.23 C 339.44 73.68 339.88 74.59 340.10 75.04 C 339.27 75.80 338.44 76.57 337.63 77.35 C 338.26 77.45 339.50 77.65 340.13 77.74 C 339.89 81.29 341.20 85.31 338.49 88.18 C 338.94 88.42 339.84 88.91 340.29 89.15 C 340.26 94.25 338.34 100.40 332.98 102.12 C 329.71 103.46 324.40 100.65 325.53 96.72 L 324.28 98.13 C 324.27 96.83 324.24 95.53 324.19 94.23 C 324.68 93.88 325.66 93.17 326.15 92.82 C 325.47 92.65 324.10 92.29 323.42 92.12 C 324.05 91.45 325.31 90.13 325.94 89.47 C 325.25 89.32 323.89 89.02 323.20 88.87 C 323.94 88.13 324.69 87.40 325.44 86.66 C 324.95 86.25 323.97 85.41 323.48 85.00 C 324.14 84.60 325.46 83.81 326.12 83.41 C 325.03 83.04 323.95 82.66 322.87 82.28 C 323.55 81.65 324.91 80.39 325.59 79.76 C 324.90 79.63 323.52 79.39 322.83 79.27 C 323.26 78.49 324.13 76.92 324.56 76.14 L 323.49 75.40 L 324.35 74.89 C 324.31 73.72 324.30 72.54 324.49 71.39 C 324.77 68.72 327.56 68.00 329.47 66.73 C 328.48 66.76 326.51 66.83 325.53 66.86 Z" />
<path fill="#ffffff" d=" M 577.24 68.88 C 579.93 67.24 582.74 65.73 585.01 63.50 L 585.02 64.36 C 584.47 64.98 583.38 66.23 582.83 66.85 C 583.49 67.14 584.82 67.73 585.48 68.02 C 583.29 70.87 580.01 68.89 577.24 68.88 Z" />
<path fill="#ffffff" d=" M 182.24 64.65 C 183.91 65.30 185.48 66.16 186.57 67.63 C 184.64 68.93 182.73 70.27 180.79 71.56 C 180.90 70.78 181.12 69.22 181.23 68.43 C 181.70 68.20 182.63 67.72 183.10 67.49 C 182.27 67.39 180.60 67.21 179.77 67.11 C 180.59 66.29 181.41 65.47 182.24 64.65 Z" />
<path fill="#030303" d=" M 261.57 68.59 C 262.19 67.12 263.03 65.77 263.81 64.38 C 265.19 65.57 266.64 66.69 268.11 67.76 C 269.75 70.41 271.12 73.22 271.80 76.28 C 270.78 76.72 268.76 77.59 267.75 78.02 C 267.12 77.18 266.16 76.44 266.13 75.30 C 266.92 75.57 267.71 75.86 268.48 76.20 C 268.96 75.57 269.91 74.31 270.38 73.68 C 269.83 73.71 268.73 73.78 268.18 73.81 C 268.31 72.99 268.58 71.34 268.72 70.52 C 268.20 71.42 267.72 72.34 267.26 73.27 C 264.93 73.60 263.21 75.80 265.55 77.50 C 264.94 78.20 263.72 79.60 263.11 80.30 C 262.76 76.37 261.98 72.50 261.57 68.59 Z" />
<path fill="#ffffff" d=" M 383.33 65.88 C 383.56 64.53 384.28 64.27 385.47 65.09 C 385.21 66.45 384.50 66.71 383.33 65.88 Z" />
<path fill="#ffffff" d=" M 599.97 67.37 C 601.37 63.83 605.43 64.94 606.74 67.82 C 604.68 69.05 602.72 70.44 600.67 71.66 C 600.78 68.93 602.47 67.30 604.75 66.26 C 603.17 66.70 601.57 67.07 599.97 67.37 Z" />
<path fill="#ffffff" d=" M 245.59 70.04 C 246.04 67.42 248.81 66.59 250.92 65.73 C 249.40 67.26 247.91 68.88 246.14 70.12 L 245.59 70.04 Z" />
<path fill="#ffffff" d=" M 282.50 66.37 C 283.54 65.56 285.34 65.36 286.45 66.15 C 286.32 67.63 282.60 67.85 282.50 66.37 Z" />
<path fill="#030303" d=" M 319.00 68.82 C 319.94 67.68 320.96 66.42 322.31 65.76 C 322.36 66.18 322.46 67.01 322.51 67.42 C 321.85 68.30 321.05 69.05 320.13 69.67 C 319.34 69.94 318.96 69.66 319.00 68.82 Z" />
<path fill="#ffffff" d=" M 387.28 68.07 C 386.78 66.78 388.83 65.63 389.89 66.18 C 390.17 67.34 388.33 68.68 387.28 68.07 Z" />
<path fill="#ffffff" d=" M 538.30 66.15 C 538.69 66.89 538.69 66.89 538.30 66.15 Z" />
<path fill="#ffffff" d=" M 88.42 72.28 C 90.28 69.05 94.32 67.54 97.79 66.70 C 95.35 69.51 91.72 70.78 88.42 72.28 Z" />
<path fill="#ffffff" d=" M 510.16 72.25 C 512.16 69.11 516.01 67.50 519.52 66.69 C 517.13 69.55 513.47 70.79 510.16 72.25 Z" />
<path fill="#030303" d=" M 160.32 68.22 C 160.88 68.10 162.01 67.86 162.58 67.74 C 162.17 68.03 161.36 68.61 160.95 68.90 L 160.32 68.22 Z" />
<path fill="#ffffff" d=" M 262.99 72.25 C 263.20 69.31 265.83 67.57 268.49 69.12 C 268.10 69.30 267.30 69.67 266.91 69.86 C 265.65 70.74 264.34 71.53 262.99 72.25 Z" />
<path fill="#ffffff" d=" M 341.51 69.92 C 341.50 69.33 341.48 68.16 341.46 67.57 C 342.17 67.71 343.59 67.98 344.30 68.12 L 342.17 69.15 C 343.28 69.72 344.46 70.16 345.66 70.54 C 346.85 72.40 348.16 74.19 349.50 75.96 C 348.62 76.83 347.14 77.29 346.91 78.64 C 347.68 78.34 349.24 77.73 350.01 77.43 C 349.64 82.10 344.04 83.59 340.65 85.73 C 341.92 83.26 344.09 81.48 345.78 79.33 C 344.27 80.38 342.83 81.70 340.77 81.39 C 342.12 78.62 344.52 76.78 347.11 75.25 C 344.92 76.27 342.86 77.56 340.59 78.38 C 341.73 76.25 343.33 74.45 345.09 72.81 C 343.62 73.50 342.18 74.21 340.71 74.87 C 341.37 73.70 342.06 72.54 342.77 71.38 C 342.06 71.22 340.64 70.91 339.93 70.75 C 340.33 70.54 341.11 70.13 341.51 69.92 Z" />
<path fill="#ffffff" d=" M 113.05 69.58 C 114.58 71.25 116.86 71.75 118.91 72.51 C 118.89 73.15 118.86 74.42 118.84 75.06 C 117.05 76.06 115.10 76.68 113.08 76.99 C 113.29 76.44 113.71 75.34 113.92 74.78 C 112.60 74.55 111.31 74.26 110.01 73.97 C 111.77 73.71 113.10 72.62 114.20 71.29 L 110.67 71.87 C 111.46 71.10 112.25 70.34 113.05 69.58 Z" />
<path fill="#ffffff" d=" M 180.70 74.88 C 181.14 71.48 184.87 70.49 187.35 68.89 C 186.28 70.49 184.78 71.81 184.02 73.61 L 183.60 72.60 C 182.65 73.38 181.68 74.14 180.70 74.88 Z" />
<path fill="#ffffff" d=" M 286.96 71.17 C 288.52 70.18 290.09 69.20 291.71 68.30 C 290.39 70.24 289.10 72.21 288.03 74.31 L 286.26 72.26 C 286.36 72.03 286.56 71.58 286.66 71.35 L 286.96 71.17 Z" />
<path fill="#ffffff" d=" M 304.70 69.27 C 305.59 69.32 307.35 69.43 308.23 69.48 C 307.73 72.83 305.71 76.85 301.58 75.88 C 302.58 73.08 304.90 71.45 307.42 70.15 C 306.74 69.93 305.38 69.49 304.70 69.27 Z" />
<path fill="#ffffff" d=" M 515.29 71.70 C 515.49 70.23 520.76 67.74 520.22 70.62 C 518.70 71.32 516.91 71.54 515.29 71.70 Z" />
<path fill="#ffffff" d=" M 607.04 68.92 C 606.19 70.34 605.49 72.24 607.95 72.31 C 607.83 73.75 606.42 73.95 605.34 74.39 C 605.52 74.68 605.86 75.26 606.04 75.55 C 604.57 77.51 602.40 78.74 600.30 79.89 C 601.14 77.97 602.72 76.55 603.86 74.82 C 603.96 74.43 604.17 73.65 604.28 73.26 L 604.21 72.65 C 603.29 73.15 601.45 74.15 600.53 74.65 C 601.79 71.86 604.71 70.63 607.04 68.92 Z" />
<path fill="#ffffff" d=" M 57.78 69.68 C 58.05 70.51 58.30 71.34 58.56 72.18 C 55.52 73.65 52.41 74.95 49.40 76.48 C 51.22 73.55 54.72 72.83 57.76 71.92 C 57.77 71.36 57.78 70.24 57.78 69.68 Z" />
<path fill="#ffffff" d=" M 133.40 70.34 C 133.91 69.61 136.43 69.50 135.09 70.80 C 134.38 71.76 133.50 72.43 132.43 72.80 C 130.61 72.56 132.46 70.48 133.40 70.34 Z" />
<path fill="#030303" d=" M 320.90 70.35 C 321.65 70.92 321.65 70.92 320.90 70.35 Z" />
<path fill="#ffffff" d=" M 579.00 69.90 C 579.69 70.80 579.54 71.61 578.54 72.32 C 578.32 72.03 577.88 71.45 577.66 71.16 C 578.00 70.85 578.66 70.22 579.00 69.90 Z" />
<path fill="#030303" d=" M 94.85 71.46 C 96.08 71.20 97.31 70.94 98.54 70.68 C 96.41 72.93 95.30 76.96 91.21 76.14 C 92.49 74.63 93.78 73.13 94.85 71.46 Z" />
<path fill="#ffffff" d=" M 163.74 70.18 C 163.40 72.18 164.16 74.72 162.18 76.10 C 161.52 75.23 160.86 74.36 160.17 73.53 C 159.15 74.42 157.97 74.82 156.62 74.73 C 158.23 73.58 159.97 72.64 161.66 71.60 C 161.82 72.12 162.14 73.17 162.31 73.69 C 162.66 72.81 163.38 71.06 163.74 70.18 Z" />
<path fill="#030303" d=" M 385.09 72.03 C 385.44 68.69 388.10 73.16 385.09 72.03 Z" />
<path fill="#ffffff" d=" M 129.97 74.20 C 132.73 76.11 134.53 72.34 137.09 71.74 C 137.05 74.12 133.56 74.62 133.91 76.88 C 135.01 76.57 136.08 76.20 137.13 75.75 C 137.06 76.42 136.91 77.75 136.83 78.41 C 136.04 78.22 134.24 78.47 134.40 79.67 C 135.12 79.92 136.56 80.42 137.28 80.68 C 135.30 82.18 133.64 84.53 130.77 84.23 C 133.08 85.30 135.83 84.75 137.72 82.74 C 136.35 84.45 134.76 85.90 132.93 87.09 C 131.76 87.45 130.57 87.80 129.38 88.12 C 129.82 87.59 130.68 86.53 131.11 86.01 C 129.90 84.17 129.97 82.13 130.88 80.16 C 131.59 80.33 133.00 80.67 133.71 80.83 C 132.31 79.98 130.84 79.25 129.37 78.53 C 130.18 77.93 131.00 77.33 131.81 76.73 C 132.14 75.45 130.65 74.99 129.97 74.20 Z" />
<path fill="#ffffff" d=" M 184.02 73.61 C 185.40 72.63 186.92 71.86 188.58 71.44 C 187.80 73.78 183.52 73.94 184.81 77.00 C 183.28 77.94 181.73 78.87 180.15 79.72 C 180.56 77.69 182.45 76.66 183.80 75.33 L 182.81 74.37 C 183.11 74.18 183.72 73.80 184.02 73.61 Z" />
<path fill="#ffffff" d=" M 518.20 74.40 C 518.71 72.60 519.83 71.52 521.54 71.19 C 521.03 71.76 520.02 72.90 519.51 73.48 C 519.15 75.10 517.48 75.56 516.28 76.34 C 514.30 77.46 512.42 78.86 510.12 79.24 C 512.26 76.80 515.29 75.63 518.20 74.40 Z" />
<path fill="#030303" d=" M 304.23 73.26 C 304.81 73.85 304.81 73.85 304.23 73.26 Z" />
<path fill="#ffffff" d=" M 316.02 74.48 C 318.60 76.64 320.97 73.32 323.47 72.96 C 321.18 76.35 317.31 78.03 313.99 80.20 C 314.35 79.18 315.07 77.16 315.43 76.15 L 317.33 77.34 C 317.00 76.62 316.34 75.20 316.02 74.48 Z" />
<path fill="#ffffff" d=" M 53.38 76.29 C 54.05 75.94 54.73 75.61 55.41 75.28 C 55.56 75.66 55.85 76.43 55.99 76.82 C 57.28 77.48 58.43 75.26 59.65 74.78 C 59.62 76.13 59.61 77.48 59.63 78.83 C 56.94 77.57 54.55 80.23 51.95 80.73 C 51.49 82.10 51.60 83.89 49.97 84.49 L 50.97 83.28 C 50.80 82.62 50.66 81.94 50.55 81.26 C 50.12 78.75 55.69 79.41 54.79 77.17 C 54.44 76.95 53.73 76.51 53.38 76.29 Z" />
<path fill="#030303" d=" M 247.78 77.91 C 247.39 76.44 247.76 75.41 248.89 74.80 L 249.58 74.80 C 249.39 77.62 248.96 80.43 248.84 83.26 C 253.41 83.13 257.98 83.43 262.55 83.49 C 262.27 80.55 264.91 79.25 266.68 77.51 C 268.43 79.97 270.36 77.34 272.09 76.42 C 272.21 79.10 271.93 81.76 271.43 84.39 C 264.07 85.54 256.45 83.55 249.23 85.18 C 249.60 90.73 249.83 97.61 254.91 101.07 C 256.89 102.77 259.63 101.95 261.88 101.35 C 265.05 100.49 268.39 98.77 269.62 95.52 C 270.79 92.89 269.13 89.94 270.18 87.29 C 271.50 86.79 272.61 87.63 272.61 89.02 C 273.05 94.01 270.04 99.12 265.58 101.37 C 261.10 103.53 255.88 104.81 250.97 103.51 C 246.66 101.51 243.23 98.05 240.62 94.14 C 240.57 92.59 241.78 92.22 242.99 92.00 C 244.76 89.54 248.41 88.30 248.31 84.84 C 247.74 84.51 246.61 83.84 246.05 83.51 C 246.62 83.00 247.19 82.49 247.77 81.98 C 247.81 81.32 247.89 79.98 247.93 79.31 L 245.45 79.20 C 246.03 78.87 247.20 78.23 247.78 77.91 Z" />
<path fill="#ffffff" d=" M 475.07 75.74 C 475.74 75.58 477.08 75.26 477.75 75.11 C 477.24 76.03 476.36 76.81 476.21 77.88 C 478.44 77.99 479.78 75.66 481.61 74.72 C 481.48 75.57 481.23 77.25 481.10 78.09 C 477.78 78.95 474.75 80.60 471.44 81.50 C 472.60 80.08 474.08 79.18 475.87 78.79 C 474.86 78.30 473.84 77.82 472.83 77.34 L 475.79 78.08 C 475.61 77.50 475.25 76.32 475.07 75.74 Z" />
<path fill="#ffffff" d=" M 98.72 76.23 C 98.69 76.53 98.65 77.14 98.62 77.44 C 95.32 79.52 92.12 81.86 88.40 83.16 C 91.03 79.84 95.01 78.06 98.72 76.23 Z" />
<path fill="#ffffff" d=" M 157.30 78.52 C 156.74 77.26 158.48 76.23 159.51 75.97 C 160.48 75.88 160.91 76.25 160.80 77.06 C 159.77 77.69 158.61 78.91 157.30 78.52 Z" />
<path fill="#ffffff" d=" M 180.96 81.93 C 182.69 79.41 185.24 77.47 187.76 75.75 C 187.63 77.76 187.37 79.76 187.33 81.78 C 187.14 82.60 186.94 83.41 186.75 84.23 C 184.74 85.43 182.78 86.71 180.72 87.83 C 180.99 87.26 181.52 86.14 181.79 85.57 C 182.83 84.28 180.28 83.35 180.96 81.93 Z" />
<path fill="#030303" d=" M 292.20 76.13 C 292.43 76.14 292.90 76.15 293.13 76.16 C 293.26 80.06 293.32 83.98 292.95 87.87 L 295.38 87.58 C 294.38 88.82 293.39 90.05 292.40 91.29 C 293.15 91.85 293.91 92.42 294.67 92.98 C 294.35 93.33 293.70 94.04 293.38 94.40 C 291.17 95.76 289.66 98.16 286.61 97.84 L 287.35 96.30 C 288.32 95.79 289.11 95.09 289.73 94.20 C 290.56 93.68 291.40 93.17 292.24 92.66 C 291.66 92.55 290.52 92.31 289.94 92.20 C 290.66 89.68 292.87 86.97 290.66 84.60 L 292.06 85.02 C 292.00 84.25 291.89 82.70 291.83 81.93 C 289.45 83.68 287.18 85.58 285.29 87.86 C 285.49 87.19 285.87 85.85 286.06 85.18 C 287.90 82.92 290.26 81.24 292.56 79.49 C 291.86 79.67 290.44 80.02 289.74 80.20 C 289.49 79.70 288.99 78.68 288.74 78.18 C 289.89 77.50 291.05 76.81 292.20 76.13 Z" />
<path fill="#ffffff" d=" M 509.93 83.14 C 513.01 80.02 516.86 77.42 521.17 76.41 C 517.90 79.35 514.13 81.78 509.93 83.14 Z" />
<path fill="#ffffff" d=" M 600.74 84.31 C 601.05 80.20 605.05 78.06 607.97 75.75 C 607.92 77.01 607.88 78.28 607.84 79.56 C 607.34 79.82 606.34 80.35 605.84 80.62 C 606.34 80.66 607.35 80.74 607.86 80.79 C 607.59 81.86 607.34 82.93 607.10 84.01 C 605.03 85.46 602.94 86.92 600.51 87.72 C 601.94 85.58 604.07 84.10 605.78 82.21 C 604.09 82.89 602.41 83.59 600.74 84.31 Z" />
<path fill="#ffffff" d=" M 156.96 81.75 C 159.19 79.37 161.39 76.88 164.34 75.34 C 164.96 77.12 158.53 82.28 164.54 79.46 C 163.10 82.44 160.23 84.25 157.07 84.93 C 157.72 84.25 158.36 83.56 159.01 82.88 C 159.63 82.38 160.23 81.87 160.83 81.35 C 159.86 81.45 157.93 81.65 156.96 81.75 Z" />
<path fill="#ffffff" d=" M 230.62 77.22 C 230.63 77.54 230.65 78.19 230.66 78.52 C 229.35 79.42 228.06 80.35 226.79 81.30 L 228.02 82.72 C 227.19 82.44 225.53 81.89 224.70 81.61 C 226.63 80.09 228.62 78.65 230.62 77.22 Z" />
<path fill="#ffffff" d=" M 313.35 82.11 C 316.57 80.23 319.31 77.69 322.42 75.65 C 322.33 77.33 322.25 79.02 322.21 80.71 C 320.38 82.44 318.27 83.80 316.41 85.48 C 318.72 84.69 320.58 83.07 322.65 81.84 C 322.25 83.33 321.84 84.82 321.41 86.31 C 318.40 87.01 315.95 88.98 313.20 90.26 C 313.92 88.43 315.22 86.96 316.48 85.49 C 315.13 85.97 313.78 86.44 312.43 86.89 C 313.52 85.47 314.80 84.22 316.10 83.00 C 314.96 83.58 313.81 84.14 312.67 84.69 C 312.84 84.05 313.18 82.76 313.35 82.11 Z" />
<path fill="#ffffff" d=" M 404.17 76.95 C 405.38 77.81 406.52 78.76 407.79 79.54 C 409.80 79.22 412.73 77.42 412.82 80.86 C 413.54 80.77 414.97 80.60 415.68 80.51 C 412.43 81.67 408.89 81.45 405.91 83.52 C 405.30 82.62 404.66 81.74 404.12 80.80 C 404.93 80.60 406.55 80.19 407.36 79.99 C 406.28 78.98 405.22 77.98 404.17 76.95 Z" />
<path fill="#ffffff" d=" M 362.42 80.64 C 364.44 79.92 366.43 79.13 368.46 78.41 C 367.65 79.79 366.57 81.04 364.80 81.09 C 365.04 81.87 365.30 82.64 365.58 83.41 C 366.32 82.94 367.79 82.01 368.53 81.54 C 367.56 83.05 366.30 84.28 364.75 85.21 C 365.73 85.31 367.69 85.51 368.67 85.61 C 368.07 85.99 366.88 86.76 366.28 87.14 C 367.05 87.73 367.83 88.33 368.61 88.93 C 367.97 89.39 366.69 90.31 366.06 90.77 C 369.01 92.04 367.32 94.46 367.19 96.74 C 367.72 96.99 368.78 97.50 369.31 97.76 C 369.00 98.22 368.37 99.13 368.06 99.59 C 366.91 98.15 365.07 97.96 363.46 97.35 C 362.68 96.39 362.15 95.26 361.57 94.18 C 362.60 92.87 366.42 92.17 363.89 89.91 L 365.89 90.25 C 364.57 89.00 363.31 87.22 361.23 87.74 C 361.24 86.52 361.23 85.29 361.19 84.07 C 361.72 83.82 362.79 83.31 363.32 83.06 C 364.43 82.39 362.68 81.34 362.42 80.64 Z" />
<path fill="#ffffff" d=" M 556.04 85.60 C 558.08 81.83 561.40 78.83 565.37 77.21 C 565.00 82.00 559.60 83.61 556.04 85.60 Z" />
<path fill="#030303" d=" M 239.96 78.87 C 240.18 78.96 240.63 79.14 240.85 79.23 C 241.90 83.40 241.80 88.13 240.13 92.13 C 239.68 90.23 239.28 88.32 238.83 86.42 C 239.48 83.95 239.61 81.39 239.96 78.87 Z" />
<path fill="#030303" d=" M 243.68 80.89 C 243.26 77.98 247.70 79.64 246.50 81.80 C 245.37 82.12 244.43 81.81 243.68 80.89 Z" />
<path fill="#ffffff" d=" M 90.96 84.00 C 93.55 82.51 95.40 79.93 98.43 79.19 C 97.96 80.58 97.40 82.01 95.99 82.64 C 93.07 84.45 90.37 86.57 87.48 88.42 C 88.36 86.78 89.19 84.86 90.96 84.00 Z" />
<path fill="#030303" d=" M 203.91 80.42 C 204.64 81.02 204.64 81.02 203.91 80.42 Z" />
<path fill="#030303" d=" M 284.25 80.25 C 285.82 79.58 287.64 79.34 289.35 79.51 C 288.87 81.19 287.09 82.14 286.07 83.53 C 284.92 84.64 283.82 85.79 282.63 86.85 C 283.02 84.70 282.67 82.01 284.25 80.25 Z" />
<path fill="#ffffff" d=" M 516.00 81.72 C 516.77 80.66 517.77 80.22 519.01 80.41 C 519.08 81.45 518.54 82.22 517.38 82.73 C 516.40 83.03 515.94 82.69 516.00 81.72 Z" />
<path fill="#ffffff" d=" M 583.23 80.48 C 583.55 80.76 583.55 80.76 583.23 80.48 Z" />
<path fill="#030303" d=" M 182.73 84.37 C 182.46 82.98 184.36 81.43 185.61 81.42 C 185.43 81.93 185.06 82.95 184.87 83.46 C 184.34 83.69 183.27 84.14 182.73 84.37 Z" />
<path fill="#ffffff" d=" M 229.26 83.31 C 227.46 83.17 228.67 80.14 230.02 81.43 C 229.83 81.90 229.45 82.84 229.26 83.31 Z" />
<path fill="#ffffff" d=" M 267.12 83.02 C 266.79 81.56 269.46 80.61 270.54 81.34 C 271.14 83.05 268.25 83.97 267.12 83.02 Z" />
<path fill="#ffffff" d=" M 340.91 89.35 C 342.00 84.82 346.51 82.79 350.33 80.98 C 349.89 84.26 347.11 86.04 344.89 88.07 C 346.43 87.26 347.94 86.39 349.52 85.63 C 348.89 86.76 348.22 87.86 347.51 88.94 L 347.82 89.89 C 347.45 90.03 346.70 90.31 346.32 90.44 L 346.78 91.03 C 345.76 91.55 344.84 92.19 343.99 92.94 C 343.06 93.19 341.20 93.68 340.28 93.93 C 341.51 92.30 343.16 91.03 344.36 89.36 C 343.50 89.36 341.77 89.35 340.91 89.35 Z" />
<path fill="#ffffff" d=" M 556.32 89.92 C 556.46 84.79 561.84 83.15 565.50 80.97 C 565.03 82.65 564.35 84.26 563.19 85.58 C 564.61 86.50 563.59 87.96 563.17 89.04 C 561.34 91.56 558.47 93.33 555.47 94.08 C 557.45 91.73 559.51 89.46 561.43 87.05 C 559.74 88.04 558.04 89.00 556.32 89.92 Z" />
<path fill="#ffffff" d=" M 579.87 81.75 C 581.27 81.68 582.68 81.62 584.10 81.57 C 582.09 82.94 579.96 84.09 577.71 85.00 C 578.42 83.91 579.14 82.83 579.87 81.75 Z" />
<path fill="#ffffff" d=" M 119.74 86.39 C 120.78 82.66 125.22 83.42 128.17 82.65 C 127.73 87.28 127.84 91.95 128.49 96.56 C 127.52 100.32 124.00 102.58 120.53 103.76 C 118.83 101.61 118.27 98.81 118.24 96.12 C 116.99 94.53 118.74 93.43 119.62 92.28 C 119.02 92.42 117.82 92.70 117.21 92.84 C 118.00 90.67 118.55 88.39 119.74 86.39 Z" />
<path fill="#030303" d=" M 242.14 82.82 C 245.10 81.19 242.39 86.20 242.14 82.82 Z" />
<path fill="#030303" d=" M 416.24 83.47 C 416.56 83.75 416.56 83.75 416.24 83.47 Z" />
<path fill="#ffffff" d=" M 514.79 82.53 C 514.38 83.69 513.99 84.85 513.56 85.99 C 512.08 86.65 510.65 87.41 509.18 88.08 C 510.54 85.75 512.34 83.76 514.79 82.53 Z" />
<path fill="#ffffff" d=" M 528.37 90.30 C 530.01 86.20 534.34 84.43 537.58 81.84 C 537.57 82.80 537.53 84.71 537.51 85.67 L 536.01 85.60 L 536.75 86.35 C 533.66 86.97 531.17 89.01 528.37 90.30 Z" />
<path fill="#ffffff" d=" M 226.96 84.83 C 227.60 84.63 228.89 84.23 229.54 84.03 C 228.61 84.87 227.67 85.69 226.72 86.50 C 223.81 87.06 221.78 89.37 219.07 90.37 C 220.15 89.10 220.90 87.14 222.74 86.79 C 224.17 86.16 226.38 86.64 226.96 84.83 Z" />
<path fill="#030303" d=" M 362.31 84.16 C 363.70 83.83 364.14 84.33 363.62 85.69 L 362.76 86.11 C 362.65 85.63 362.42 84.65 362.31 84.16 Z" />
<path fill="#ffffff" d=" M 420.07 85.18 C 421.23 83.56 425.13 82.54 425.55 85.24 C 426.99 88.52 421.66 88.58 419.79 88.02 C 420.28 87.67 421.25 86.98 421.74 86.63 C 421.32 86.27 420.49 85.54 420.07 85.18 Z" />
<path fill="#ffffff" d=" M 161.69 88.43 C 161.63 87.70 161.50 86.23 161.44 85.49 C 162.46 85.98 163.48 86.45 164.51 86.91 C 163.44 88.23 162.07 89.35 161.16 90.79 C 162.28 90.49 163.37 90.08 164.42 89.55 C 164.19 91.47 163.44 93.42 164.12 95.35 C 161.97 93.52 159.75 95.96 157.64 96.56 C 158.17 95.08 159.60 93.70 158.75 92.06 L 158.26 91.26 C 159.15 90.36 160.07 89.50 161.04 88.68 C 159.80 88.76 158.57 88.83 157.33 88.87 C 157.83 88.45 158.81 87.61 159.30 87.19 C 160.09 87.62 160.88 88.03 161.69 88.43 Z" />
<path fill="#030303" d=" M 191.13 85.21 C 191.76 85.81 191.76 85.81 191.13 85.21 Z" />
<path fill="#ffffff" d=" M 49.74 88.32 C 51.09 87.52 52.45 86.72 53.79 85.92 C 53.52 86.50 52.96 87.64 52.68 88.22 C 53.69 90.23 55.53 88.87 56.49 87.60 C 56.75 87.61 57.26 87.63 57.52 87.64 C 57.51 86.86 57.49 85.31 57.48 84.53 C 59.88 85.92 59.93 88.48 58.36 90.41 C 58.65 90.84 59.22 91.69 59.50 92.11 C 58.94 92.18 57.82 92.32 57.25 92.39 C 57.27 92.68 57.29 93.28 57.30 93.58 C 56.00 93.48 54.70 93.39 53.40 93.32 L 53.59 94.72 C 52.40 94.62 51.20 94.50 50.01 94.37 C 50.34 92.78 52.49 91.50 52.07 90.01 L 51.62 89.44 L 51.39 88.62 L 49.74 88.32 Z" />
<path fill="#ffffff" d=" M 110.87 87.95 C 112.27 86.27 114.43 85.45 116.35 84.54 L 114.87 86.75 L 118.08 85.84 C 116.69 87.22 114.58 87.94 113.65 89.79 L 114.57 89.57 L 115.22 89.22 C 115.48 89.17 116.01 89.08 116.28 89.03 C 115.32 91.27 116.31 94.01 114.26 95.78 C 114.83 95.76 115.96 95.72 116.53 95.70 C 115.72 96.60 114.11 98.42 113.30 99.32 C 114.29 98.94 116.27 98.19 117.26 97.81 C 116.74 98.88 116.19 99.94 115.60 100.97 L 115.99 101.89 L 114.86 102.80 C 114.17 101.32 113.44 99.86 112.67 98.42 C 112.59 99.19 112.44 100.73 112.36 101.50 C 112.09 100.91 111.55 99.72 111.29 99.13 C 109.64 98.17 107.83 96.14 109.49 94.31 C 109.24 94.02 108.74 93.45 108.49 93.16 C 111.37 92.57 109.37 89.58 110.87 87.95 Z" />
<path fill="#030303" d=" M 290.09 86.00 C 290.03 86.37 289.91 87.09 289.86 87.45 C 288.96 88.58 287.88 89.18 286.61 89.27 C 286.75 87.63 288.84 86.81 290.09 86.00 Z" />
<path fill="#ffffff" d=" M 471.74 88.54 C 472.59 87.74 473.43 86.94 474.29 86.13 C 474.48 86.82 474.86 88.21 475.04 88.90 C 476.28 89.39 477.34 88.98 478.21 87.68 C 478.48 87.64 479.01 87.57 479.27 87.53 C 479.36 86.80 479.53 85.35 479.61 84.62 C 482.09 86.55 480.59 89.36 480.42 91.87 C 479.96 92.22 479.04 92.93 478.58 93.29 L 478.25 90.75 C 477.88 91.89 477.53 93.04 477.20 94.19 C 476.91 93.73 476.34 92.81 476.05 92.35 C 475.91 94.88 473.63 94.85 471.67 94.48 C 472.39 93.05 473.22 91.66 473.80 90.15 L 473.54 89.59 L 473.34 88.78 L 471.74 88.54 Z" />
<path fill="#ffffff" d=" M 607.29 85.64 C 608.99 89.36 603.88 90.77 601.58 92.48 C 600.15 88.64 605.26 87.77 607.29 85.64 Z" />
<path fill="#ffffff" d=" M 134.92 89.40 C 133.20 89.03 134.43 86.48 135.81 86.64 C 137.49 87.01 136.25 89.53 134.92 89.40 Z" />
<path fill="#030303" d=" M 283.35 87.35 C 283.73 87.33 284.49 87.31 284.87 87.29 C 285.48 88.69 285.28 90.05 284.18 91.14 L 285.46 90.49 C 285.78 90.84 286.43 91.56 286.76 91.91 C 285.61 93.09 284.50 94.30 283.48 95.59 C 284.56 95.43 286.70 95.12 287.78 94.96 C 287.32 95.72 286.41 97.24 285.95 97.99 C 285.82 98.43 285.56 99.31 285.44 99.74 L 285.44 99.90 C 286.28 99.13 287.14 98.38 288.03 97.66 C 288.49 97.79 289.42 98.04 289.88 98.17 C 290.08 98.46 290.48 99.03 290.67 99.31 C 288.52 100.21 286.02 100.78 284.54 102.75 C 286.18 102.13 287.76 101.38 289.32 100.58 C 289.80 100.69 290.75 100.90 291.23 101.00 C 291.42 98.85 291.61 96.61 292.95 94.82 C 292.74 97.66 293.16 100.61 295.31 102.63 C 297.94 103.30 301.57 101.49 303.25 104.30 C 301.54 104.50 299.83 104.55 298.12 104.47 C 290.75 103.60 283.32 104.06 275.93 103.94 C 275.35 103.70 274.19 103.21 273.61 102.96 C 276.40 102.02 279.29 101.44 282.15 100.70 C 281.95 100.12 281.57 98.95 281.38 98.37 C 281.77 97.79 282.55 96.65 282.93 96.07 C 282.89 94.53 282.87 92.98 282.88 91.43 C 280.11 90.57 282.85 88.75 283.35 87.35 Z" />
<path fill="#ffffff" d=" M 314.35 92.59 C 316.06 89.84 319.12 88.64 322.12 87.93 C 319.75 89.82 317.17 91.47 314.35 92.59 Z" />
<path fill="#ffffff" d=" M 529.43 92.53 C 531.17 90.16 533.86 88.95 536.56 88.03 C 536.60 88.29 536.68 88.80 536.71 89.05 C 534.22 90.08 531.98 91.64 529.43 92.53 Z" />
<path fill="#030303" d=" M 111.13 89.52 C 112.53 88.37 113.49 91.46 111.73 91.44 C 111.58 90.96 111.28 90.00 111.13 89.52 Z" />
<path fill="#ffffff" d=" M 129.39 89.76 C 129.68 89.67 130.25 89.50 130.53 89.41 C 131.74 91.19 133.81 90.97 135.66 90.70 C 135.44 92.07 135.53 93.44 135.73 94.80 L 134.08 94.68 C 135.04 95.88 136.00 97.09 136.96 98.29 C 135.85 98.41 133.61 98.64 132.50 98.76 C 133.88 99.16 135.30 99.42 136.72 99.66 C 136.39 100.23 135.73 101.37 135.40 101.94 C 133.42 102.67 132.56 100.02 131.27 99.05 C 132.23 97.85 133.25 96.70 134.23 95.53 L 131.33 96.03 C 132.81 94.48 134.76 93.15 135.16 90.86 C 133.26 91.53 131.66 92.74 129.95 93.76 C 130.77 92.33 130.98 90.74 129.39 89.76 Z" />
<path fill="#ffffff" d=" M 509.20 89.22 C 509.87 89.85 509.87 89.85 509.20 89.22 Z" />
<path fill="#ffffff" d=" M 180.47 95.01 C 182.71 92.92 185.44 91.48 187.96 89.78 C 187.36 90.48 186.15 91.87 185.55 92.57 L 187.93 92.55 C 188.88 95.52 184.27 94.08 182.71 94.95 C 183.93 95.57 185.16 96.16 186.40 96.75 C 186.81 96.53 187.64 96.09 188.05 95.87 C 188.10 97.44 188.21 99.02 188.49 100.56 C 187.88 100.68 186.66 100.90 186.05 101.01 C 186.40 100.48 187.11 99.41 187.46 98.88 C 186.48 99.15 184.50 99.69 183.51 99.96 L 185.88 96.89 C 183.81 98.22 181.85 99.72 179.70 100.91 C 180.17 98.86 181.37 97.14 183.60 96.75 C 182.56 96.16 181.51 95.59 180.47 95.01 Z" />
<path fill="#ffffff" d=" M 361.56 90.14 C 364.57 88.85 361.43 93.52 361.56 90.14 Z" />
<path fill="#030303" d=" M 587.15 90.28 C 587.84 90.77 587.84 90.77 587.15 90.28 Z" />
<path fill="#ffffff" d=" M 245.30 93.38 C 246.24 92.59 247.18 91.79 248.11 90.99 C 247.95 91.64 247.61 92.93 247.45 93.58 C 250.08 96.74 251.81 100.59 255.18 103.14 C 254.13 102.65 253.09 102.14 252.07 101.63 C 249.44 101.91 247.61 99.94 245.57 98.68 C 246.25 98.06 247.60 96.83 248.28 96.22 C 247.12 96.35 244.80 96.62 243.64 96.76 C 244.35 96.02 245.07 95.28 245.80 94.56 C 245.67 94.26 245.43 93.68 245.30 93.38 Z" />
<path fill="#ffffff" d=" M 315.87 95.41 C 316.51 92.43 319.69 91.60 321.84 89.99 C 321.68 93.06 318.11 94.09 315.87 95.41 Z" />
<path fill="#ffffff" d=" M 531.94 95.88 C 530.45 92.87 534.36 92.12 536.05 90.57 L 538.11 90.66 C 535.98 92.32 533.82 93.94 531.94 95.88 Z" />
<path fill="#030303" d=" M 286.86 94.51 C 287.24 93.28 288.10 92.46 289.42 92.04 L 289.94 92.20 C 289.87 93.50 288.15 94.94 286.86 94.51 Z" />
<path fill="#ffffff" d=" M 343.99 92.94 C 344.84 92.56 346.53 91.79 347.38 91.41 C 345.58 95.65 342.40 99.50 337.75 100.64 C 339.07 97.50 341.94 95.54 343.99 92.94 Z" />
<path fill="#ffffff" d=" M 388.06 93.29 C 389.00 92.35 391.22 93.72 390.43 94.98 C 389.34 95.93 388.10 94.31 388.06 93.29 Z" />
<path fill="#ffffff" d=" M 552.98 100.62 C 555.14 96.39 559.03 93.37 562.83 90.70 C 561.20 95.27 557.89 99.45 552.98 100.62 Z" />
<path fill="#ffffff" d=" M 316.57 95.99 C 318.66 95.99 320.48 94.99 322.23 93.98 C 322.17 96.11 322.95 98.11 323.69 100.07 C 322.72 99.74 321.76 99.40 320.80 99.06 C 321.17 98.41 321.92 97.10 322.29 96.45 C 320.34 96.60 318.35 97.12 316.57 95.99 Z" />
<path fill="#030303" d=" M 364.25 94.35 C 365.63 93.36 366.68 96.45 364.89 96.37 C 364.73 95.87 364.41 94.86 364.25 94.35 Z" />
<path fill="#ffffff" d=" M 58.18 95.05 C 58.87 95.75 58.87 95.75 58.18 95.05 Z" />
<path fill="#ffffff" d=" M 471.61 100.69 C 474.84 98.35 478.41 96.54 481.64 94.20 C 480.53 96.99 475.63 97.52 476.48 101.00 C 474.85 100.90 473.22 100.80 471.61 100.69 Z" />
<path fill="#ffffff" d=" M 157.51 100.08 C 159.89 98.41 162.48 97.07 165.14 95.89 C 164.29 98.82 160.44 100.61 157.51 100.08 Z" />
<path fill="#ffffff" d=" M 387.75 96.87 C 387.80 95.11 390.80 96.61 389.76 97.84 C 389.26 97.59 388.25 97.11 387.75 96.87 Z" />
<path fill="#ffffff" d=" M 577.66 100.14 C 580.12 98.58 582.60 96.71 585.56 96.25 C 584.77 97.30 583.95 98.34 583.11 99.34 L 585.41 99.57 C 585.86 99.87 586.75 100.48 587.19 100.79 C 584.91 101.33 583.05 101.02 582.26 98.75 C 580.99 100.02 579.38 100.51 577.66 100.14 Z" />
<path fill="#ffffff" d=" M 49.80 100.75 C 52.17 98.87 54.84 97.43 57.60 96.22 C 56.40 97.54 55.14 98.80 54.02 100.19 C 55.93 100.48 57.43 99.06 59.10 98.42 C 59.46 99.04 60.18 100.29 60.54 100.91 C 56.96 100.76 53.38 100.90 49.80 100.75 Z" />
<path fill="#ffffff" d=" M 403.11 97.31 C 404.51 96.74 404.96 97.16 404.46 98.57 C 403.04 99.14 402.59 98.72 403.11 97.31 Z" />
<path fill="#030303" d=" M 608.76 101.06 C 608.44 99.82 608.11 98.59 607.81 97.35 L 609.56 97.17 C 610.05 101.25 614.79 100.55 617.72 100.74 C 616.07 101.81 614.09 102.33 612.13 102.17 C 606.20 101.94 600.26 102.18 594.34 102.30 C 596.24 100.60 598.77 99.79 601.30 100.17 C 601.74 99.91 602.63 99.38 603.07 99.12 C 604.92 99.87 606.78 100.66 608.76 101.06 Z" />
<path fill="#ffffff" d=" M 163.04 100.75 C 161.87 99.17 164.98 98.73 165.79 99.66 C 166.96 101.17 163.82 101.59 163.04 100.75 Z" />
<path fill="#ffffff" d=" M 202.78 98.30 C 205.87 98.98 209.02 99.13 212.14 99.58 C 211.28 100.23 209.56 101.53 208.70 102.19 C 209.18 102.59 209.67 102.99 210.17 103.39 C 210.72 102.83 211.82 101.72 212.37 101.17 C 213.03 101.30 213.69 101.44 214.35 101.58 C 216.47 100.06 218.87 98.88 221.53 98.84 C 219.53 99.98 217.53 101.14 215.58 102.38 C 216.07 102.71 217.04 103.35 217.52 103.68 C 215.64 104.83 213.72 105.92 211.73 106.86 C 212.83 105.52 214.09 104.33 215.34 103.13 C 213.74 103.79 212.11 104.37 210.41 104.67 C 209.29 105.36 208.09 105.92 206.90 106.47 C 207.50 105.21 208.10 103.95 208.72 102.70 C 207.56 103.34 205.25 104.62 204.10 105.27 C 204.56 104.14 205.49 101.89 205.95 100.76 C 205.62 101.41 204.97 102.71 204.64 103.36 C 203.96 103.34 202.59 103.30 201.90 103.27 C 201.70 102.58 201.30 101.20 201.10 100.51 L 202.63 100.73 L 202.10 99.13 L 203.98 99.96 L 202.78 98.30 Z" />
<path fill="#ffffff" d=" M 215.88 105.87 C 218.99 103.65 222.15 100.82 226.26 101.18 L 225.95 101.60 C 225.43 102.10 224.38 103.12 223.86 103.63 C 223.17 103.45 221.79 103.07 221.10 102.89 C 221.68 103.41 222.83 104.44 223.41 104.96 C 220.93 105.49 218.39 105.62 215.88 105.87 Z" />
<path fill="#ffffff" d=" M 117.14 102.18 C 117.80 102.79 117.80 102.79 117.14 102.18 Z" />
<path fill="#ffffff" d=" M 223.32 106.70 C 224.76 104.03 227.60 102.80 230.17 101.47 L 229.03 104.44 L 228.04 103.74 L 227.85 105.12 L 230.66 104.05 C 229.88 104.80 228.32 106.31 227.54 107.07 C 227.15 106.81 226.38 106.28 225.99 106.02 C 225.32 106.19 223.99 106.53 223.32 106.70 Z" />
<path fill="#ffffff" d=" M 228.75 108.37 C 230.10 107.43 231.48 106.52 232.88 105.66 C 232.46 106.33 231.61 107.67 231.18 108.35 L 232.45 108.29 C 232.10 110.31 231.83 112.35 231.51 114.39 C 230.91 112.31 229.97 110.18 230.62 107.97 L 228.75 108.37 Z" />
<path fill="#ffffff" d=" M 212.74 107.76 C 215.06 107.45 217.40 107.62 219.72 107.75 C 223.66 106.87 228.62 108.75 229.56 113.01 C 229.93 117.02 226.54 120.08 223.00 121.11 C 217.49 122.09 211.80 122.12 206.30 121.12 C 204.90 118.44 201.85 115.35 204.72 112.48 C 204.37 112.52 203.68 112.60 203.33 112.63 C 204.40 111.13 205.45 109.61 206.37 108.01 C 208.47 107.67 210.61 107.53 212.74 107.76 Z" />
<path fill="#ffffff" d=" M 198.48 113.24 C 199.49 111.16 201.09 109.25 203.43 108.66 C 202.22 110.61 200.47 112.12 198.48 113.24 Z" />
<path fill="#030303" d=" M 284.36 148.28 C 286.05 146.23 288.44 145.07 291.08 144.86 C 292.75 149.15 290.14 153.32 288.00 156.90 C 282.96 164.66 276.46 171.47 268.99 176.93 C 267.36 178.02 266.33 179.71 265.24 181.29 C 270.98 183.70 276.67 180.14 280.43 175.97 C 277.72 181.70 270.45 184.38 264.67 181.71 C 263.93 184.21 263.66 186.81 263.33 189.39 C 263.18 188.43 262.87 186.51 262.72 185.55 C 258.76 192.94 252.53 199.27 250.36 207.51 C 251.80 206.99 253.60 206.96 254.66 205.68 C 259.36 201.10 261.21 194.63 263.03 188.54 C 263.00 193.02 261.21 197.25 259.29 201.22 C 257.53 204.65 254.55 208.51 250.19 207.91 C 248.11 205.78 249.33 202.67 250.48 200.40 C 253.85 193.94 257.99 187.94 261.88 181.80 C 258.55 184.19 255.24 187.43 250.79 187.07 C 250.51 186.31 249.95 184.79 249.67 184.02 C 246.74 185.20 241.68 189.37 239.57 185.06 C 238.83 181.39 240.73 177.81 243.15 175.18 C 246.17 171.76 250.35 168.66 255.15 169.05 C 257.07 168.72 257.84 170.62 258.63 171.93 C 258.98 171.35 259.68 170.18 260.03 169.60 C 260.94 169.63 262.76 169.69 263.67 169.73 C 259.68 175.28 253.97 179.82 251.55 186.35 C 255.58 186.39 258.38 183.38 261.48 181.30 C 264.02 179.14 261.14 175.94 262.72 173.58 C 263.26 172.17 266.21 173.62 264.98 174.91 C 264.77 175.68 264.34 177.20 264.12 177.96 C 271.06 168.21 276.17 157.12 284.36 148.28 Z" />
<path fill="#030303" d=" M 458.55 145.29 C 459.77 145.26 461.01 145.23 462.25 145.21 C 454.78 155.77 447.27 166.29 439.80 176.84 C 437.68 179.87 435.23 182.78 434.14 186.38 C 441.13 186.38 444.94 179.84 449.81 175.94 C 445.94 180.96 440.97 186.84 434.12 187.01 C 431.65 185.45 433.60 182.38 433.50 180.13 L 433.88 180.19 C 442.79 169.07 450.32 156.92 458.55 145.29 Z" />
<path fill="#ffffff" d=" M 284.14 151.01 C 285.77 148.75 287.28 145.75 290.43 145.52 C 290.90 151.89 286.33 157.12 282.78 161.93 C 278.66 166.96 274.22 171.88 268.73 175.45 C 273.74 167.22 278.99 159.14 284.14 151.01 Z" />
<path fill="#030303" d=" M 215.18 153.02 C 219.66 149.44 225.57 147.70 231.28 148.32 C 227.07 149.01 222.61 149.24 219.00 151.79 C 215.42 153.97 211.61 157.49 211.93 162.05 C 212.16 164.71 214.85 165.93 216.93 166.99 C 224.37 158.00 234.86 149.58 247.15 150.05 C 247.88 153.12 246.24 156.02 243.94 157.96 C 237.56 163.59 229.31 167.19 220.79 167.73 C 217.50 171.62 213.68 175.69 212.92 180.93 C 212.40 183.53 214.42 185.29 216.39 186.54 C 216.83 178.63 221.78 170.27 229.89 168.41 C 232.47 167.62 236.82 168.47 236.45 171.98 C 235.10 180.94 225.91 186.94 217.25 187.20 C 217.70 189.68 218.36 192.12 218.74 194.62 C 217.31 192.40 217.08 189.72 216.54 187.20 C 214.13 186.27 211.53 184.73 211.25 181.87 C 210.59 176.58 213.50 171.75 216.46 167.63 C 214.31 166.57 211.84 165.39 211.16 162.86 C 209.72 159.09 212.31 155.28 215.18 153.02 Z" />
<path fill="#030303" d=" M 353.03 151.05 C 354.50 149.64 356.16 148.41 358.05 147.61 C 352.10 154.41 347.66 162.32 342.82 169.91 C 340.15 174.49 337.18 178.91 334.83 183.67 C 345.38 172.27 355.87 160.68 368.02 150.94 C 369.81 149.49 371.84 148.33 374.07 147.71 C 365.13 155.41 358.64 165.40 351.82 174.92 C 349.46 178.65 346.14 181.93 345.03 186.32 C 348.65 186.65 351.58 184.51 354.57 182.89 C 352.34 185.81 348.55 186.95 345.02 187.02 C 342.43 186.07 343.14 183.09 344.26 181.25 C 349.63 171.33 357.84 163.40 365.10 154.90 C 357.16 161.25 350.06 168.67 343.10 176.10 C 339.44 179.77 336.72 184.39 332.44 187.39 C 332.45 185.43 332.62 183.45 333.35 181.62 C 336.74 172.61 342.82 165.03 348.28 157.24 C 338.45 166.09 331.02 177.71 319.50 184.67 C 316.60 186.50 312.85 187.71 309.53 186.36 C 307.58 185.56 307.01 182.37 309.06 181.36 C 310.10 180.08 312.59 181.69 311.13 182.99 C 310.44 183.25 309.06 183.77 308.37 184.03 C 310.07 186.65 313.48 186.55 316.10 185.55 C 319.36 184.20 322.14 181.98 324.81 179.73 C 335.01 170.96 343.15 160.14 353.03 151.05 Z" />
<path fill="#ffffff" d=" M 239.50 152.24 C 241.74 150.90 244.38 150.81 246.91 150.57 C 246.98 154.17 243.98 156.46 241.39 158.41 C 235.45 162.64 228.70 165.88 221.48 167.17 C 226.65 161.30 232.64 156.04 239.50 152.24 Z" />
<path fill="#030303" d=" M 381.80 172.34 C 380.99 170.05 381.24 166.25 384.47 166.41 C 386.22 167.89 383.70 169.49 383.29 171.04 C 383.67 172.77 385.25 173.67 386.52 174.71 C 389.40 171.82 393.24 168.16 397.61 169.50 C 398.94 173.22 393.15 174.33 390.46 175.05 C 388.02 179.40 385.51 184.00 380.98 186.53 C 381.93 187.30 382.87 188.10 383.80 188.91 C 387.63 186.06 392.02 183.35 394.09 178.86 C 396.25 174.06 400.66 170.16 405.90 169.20 C 407.51 169.22 409.70 168.65 410.74 170.28 C 411.98 172.51 409.23 175.20 407.01 174.04 C 405.41 171.82 408.71 170.63 410.31 170.16 C 406.02 168.62 402.69 172.23 400.17 175.14 C 398.10 177.69 395.62 180.54 395.85 184.05 C 396.08 185.51 397.67 186.22 399.01 186.19 C 403.73 186.14 407.83 183.15 410.91 179.81 C 413.96 176.27 416.85 172.29 421.17 170.19 C 424.13 168.76 428.43 168.08 430.44 171.35 C 431.46 169.42 433.53 169.62 435.38 169.58 C 431.60 175.34 425.63 179.74 423.36 186.38 C 426.74 186.30 429.39 184.13 432.05 182.34 C 430.06 185.27 426.50 187.05 422.97 187.04 C 420.29 186.17 422.04 183.50 422.82 181.76 C 420.16 184.32 416.98 187.36 412.96 186.99 C 410.51 185.58 411.16 182.43 411.55 180.16 C 407.79 184.34 402.14 188.05 396.29 186.64 C 394.26 186.17 393.55 184.06 393.04 182.32 C 390.34 185.33 387.21 187.91 383.83 190.11 C 383.63 195.96 379.41 200.62 375.01 203.99 C 371.74 206.35 367.70 208.68 363.52 207.55 C 362.33 205.66 363.56 203.45 364.87 202.01 C 369.36 196.92 375.54 193.88 381.07 190.12 C 380.94 189.26 380.67 187.55 380.54 186.69 C 378.58 187.62 376.69 188.76 374.56 189.28 C 376.52 187.62 379.09 186.65 380.60 184.47 C 382.70 181.50 384.30 178.21 386.42 175.25 C 384.99 174.50 383.59 173.73 382.21 172.92 C 381.27 174.47 380.32 176.01 379.36 177.55 L 382.02 176.49 C 380.95 177.58 379.87 178.67 378.79 179.76 C 375.36 183.81 370.49 187.44 364.90 186.93 C 361.99 186.82 360.32 183.48 361.17 180.89 C 362.63 174.63 368.67 169.60 375.02 169.06 C 376.65 168.48 379.15 170.30 377.71 172.03 C 374.74 176.43 369.02 177.26 364.65 179.66 C 363.76 181.25 362.76 183.42 363.89 185.13 C 364.78 186.56 366.68 186.16 368.08 186.04 C 371.69 185.44 374.64 183.05 377.28 180.66 C 377.06 180.33 376.62 179.66 376.41 179.32 C 378.49 177.23 380.36 174.92 381.80 172.34 Z" />
<path fill="#ffffff" d=" M 222.20 174.12 C 224.91 171.11 228.79 168.35 233.05 168.99 C 234.92 170.09 233.83 172.53 233.19 174.09 C 229.97 180.12 224.47 185.89 217.29 186.50 C 217.58 181.98 219.10 177.49 222.20 174.12 Z" />
<path fill="#030303" d=" M 282.30 175.36 C 285.48 171.78 289.96 168.58 294.99 169.09 C 296.75 169.42 296.93 171.57 295.81 172.69 C 292.58 176.36 287.59 177.49 283.31 179.46 C 281.88 181.29 280.77 185.57 284.01 186.07 C 291.16 186.72 295.82 180.34 300.28 175.82 C 297.63 180.45 293.41 184.38 288.40 186.32 C 285.71 187.12 281.76 187.75 280.09 184.84 C 278.58 181.64 280.35 177.97 282.30 175.36 Z" />
<path fill="#ffffff" d=" M 248.28 174.22 C 250.63 172.12 253.27 169.47 256.71 169.88 C 258.46 172.85 255.24 175.39 253.69 177.66 C 250.30 181.33 246.83 186.05 241.41 186.43 C 241.42 181.42 244.96 177.54 248.28 174.22 Z" />
<path fill="#ffffff" d=" M 283.96 178.42 C 286.86 175.16 289.39 169.50 294.50 169.75 C 295.36 175.20 287.62 176.53 283.96 178.42 Z" />
<path fill="#ffffff" d=" M 365.48 178.41 C 368.38 175.06 370.96 169.46 376.14 169.73 C 376.62 171.21 375.95 172.78 374.76 173.68 C 372.11 175.99 368.69 177.13 365.48 178.41 Z" />
<path fill="#ffffff" d=" M 390.32 174.54 C 391.59 172.36 393.69 168.66 396.77 170.20 C 397.29 173.37 392.57 173.97 390.32 174.54 Z" />
<path fill="#ffffff" d=" M 421.71 172.72 C 423.80 170.85 427.54 168.25 429.66 171.50 C 426.59 176.62 422.85 181.51 417.90 184.93 C 416.55 185.97 414.76 186.02 413.18 186.42 C 413.26 180.65 417.72 176.33 421.71 172.72 Z" />
<path fill="#ffffff" d=" M 365.54 202.44 C 369.87 197.83 375.51 194.75 380.97 191.68 C 378.80 197.45 374.49 202.24 369.44 205.68 C 367.77 206.99 365.62 207.08 363.61 207.25 C 363.99 205.56 364.20 203.69 365.54 202.44 Z" />
</svg>
