<?xml version="1.0" encoding="UTF-8" ?>
<!DOCTYPE svg PUBLIC "-//W3C//DTD SVG 1.1//EN" "http://www.w3.org/Graphics/SVG/1.1/DTD/svg11.dtd">
<svg width="706pt" height="462pt" viewBox="0 0 706 462" version="1.1" xmlns="http://www.w3.org/2000/svg">
<path fill="#010101" d=" M 0.00 0.00 L 706.00 0.00 L 706.00 462.00 L 0.00 462.00 L 0.00 0.00 Z" />
<path fill="#fafafa" d=" M 147.36 59.22 C 151.52 59.74 154.46 62.91 157.31 65.68 C 162.12 70.46 164.16 77.26 164.39 83.88 C 167.02 91.14 164.93 99.19 167.59 106.44 C 168.45 121.15 169.59 136.01 167.62 150.68 C 165.95 155.21 164.94 160.06 162.00 164.02 C 159.51 168.57 154.77 171.55 149.75 172.52 C 146.30 174.21 142.32 173.60 138.80 175.02 C 134.86 176.43 130.48 175.93 126.68 174.35 C 123.20 174.06 120.63 171.71 118.09 169.57 C 117.36 163.51 117.47 157.35 118.36 151.31 C 119.88 147.16 121.02 142.87 122.88 138.85 C 125.96 133.63 131.26 129.96 137.02 128.27 C 142.08 127.78 147.19 127.95 152.26 128.21 C 152.17 129.94 151.98 131.68 151.73 133.40 C 148.86 134.38 146.20 135.99 143.09 136.15 C 136.93 137.75 132.09 143.08 130.27 149.09 C 129.79 153.58 127.30 157.89 128.65 162.48 C 129.79 163.90 130.85 166.01 133.02 165.75 C 142.72 166.18 153.41 160.03 155.62 150.10 C 156.38 139.85 155.95 129.53 155.64 119.27 C 152.90 110.96 155.24 101.85 152.42 93.57 C 151.86 89.98 152.29 86.26 151.27 82.75 C 149.72 78.97 150.59 74.75 149.47 70.89 C 147.71 67.26 147.75 63.15 147.36 59.22 Z" />
<path fill="#fafafa" d=" M 490.03 102.28 C 492.67 99.19 496.49 97.71 500.20 96.37 C 505.63 95.38 510.98 97.66 515.49 100.48 C 519.69 104.32 524.62 108.79 524.49 114.97 C 524.08 117.90 520.77 117.89 518.74 119.19 C 517.98 118.63 517.18 118.13 516.39 117.65 C 516.05 111.45 511.00 107.05 506.42 103.52 C 505.26 102.27 503.48 102.32 501.93 102.02 C 501.29 106.59 501.23 111.29 502.20 115.81 C 505.67 122.73 508.62 129.91 512.13 136.81 C 515.43 143.92 519.09 150.88 521.70 158.29 C 522.76 163.64 517.85 167.45 513.66 169.67 C 509.94 171.33 506.38 174.02 502.17 174.00 C 497.13 173.59 491.38 176.12 487.02 172.64 C 495.29 170.44 503.90 167.96 510.11 161.68 C 509.88 160.32 510.01 158.84 509.35 157.59 C 505.02 148.86 501.28 139.87 496.90 131.18 C 494.60 126.04 491.83 121.09 490.16 115.69 C 489.54 111.28 488.96 106.67 490.03 102.28 Z" />
<path fill="#fafafa" d=" M 385.11 107.00 C 392.85 104.40 400.67 100.89 409.03 101.52 C 410.42 102.37 411.58 103.57 413.00 104.40 C 416.31 104.60 419.65 103.89 422.95 104.44 C 426.48 105.75 430.04 106.97 433.38 108.77 C 433.64 113.18 435.56 117.16 436.55 121.41 C 438.08 124.66 438.07 128.36 439.60 131.62 C 440.52 137.22 440.52 143.04 439.59 148.65 C 437.68 153.28 435.08 157.98 430.64 160.64 C 424.50 164.19 417.10 164.19 410.21 163.41 C 406.39 162.31 401.89 159.50 402.01 155.06 C 401.99 151.30 401.79 147.45 402.62 143.76 C 404.72 138.91 403.26 133.37 405.25 128.51 C 406.32 125.61 405.77 122.40 406.76 119.50 C 408.33 115.87 408.05 111.81 408.35 107.95 C 402.64 107.60 397.29 109.79 392.13 111.93 C 387.37 113.78 383.94 118.46 383.74 123.59 C 379.76 135.20 382.92 147.67 382.00 159.63 C 378.35 163.13 372.10 162.52 369.05 158.55 C 365.10 162.21 360.02 164.32 354.97 165.89 C 348.19 166.62 341.22 167.04 334.51 165.65 C 328.95 161.94 326.06 155.42 325.49 148.92 C 323.14 143.24 324.12 136.96 323.57 130.98 C 323.62 125.46 322.81 119.82 324.19 114.41 C 327.46 109.08 333.68 105.22 340.06 106.22 C 345.57 107.02 350.92 110.50 353.67 115.40 C 354.75 120.21 355.49 126.03 352.27 130.20 C 348.68 135.85 342.84 139.23 337.32 142.69 C 338.01 148.82 339.45 155.62 344.31 159.86 C 352.25 162.24 359.87 157.65 365.94 153.00 C 368.31 151.34 368.40 148.24 369.38 145.75 C 369.97 138.86 369.37 131.91 370.11 125.04 C 372.96 117.73 377.11 109.66 385.11 107.00 Z" />
<path fill="#fafafa" d=" M 471.75 106.36 C 474.84 102.76 481.86 102.08 484.16 106.87 C 489.50 113.34 488.31 122.18 488.51 129.98 C 489.08 139.81 483.25 148.91 475.88 154.95 C 470.46 159.77 462.65 158.48 455.99 158.27 C 450.03 158.26 448.29 151.45 446.50 146.94 C 445.38 140.03 445.49 132.98 445.49 126.00 C 445.52 122.05 445.20 118.05 446.13 114.17 C 447.88 114.26 449.64 114.38 451.40 114.52 C 452.26 120.13 453.85 125.55 454.37 131.21 C 455.69 134.21 455.93 137.46 456.43 140.66 C 458.30 144.62 457.78 149.68 461.53 152.64 C 463.38 155.25 466.29 152.37 467.96 151.00 C 472.22 146.29 476.19 140.53 476.42 133.96 C 477.06 127.38 476.78 120.70 475.77 114.18 C 474.33 111.61 471.99 109.46 471.75 106.36 Z" />
<path fill="#fafafa" d=" M 239.65 111.63 C 242.39 108.05 247.02 105.84 251.55 106.13 C 253.47 107.98 255.53 109.78 256.77 112.20 C 262.48 122.80 267.10 134.00 273.48 144.23 C 273.96 139.17 273.48 134.04 274.31 129.01 C 277.02 120.82 285.41 116.42 293.09 114.04 C 298.98 114.68 305.73 116.36 309.35 121.51 C 316.12 132.14 319.49 144.41 323.05 156.35 C 327.76 171.84 332.34 187.36 336.86 202.90 C 338.81 207.84 339.01 213.57 342.18 217.93 C 345.15 218.08 348.20 217.92 351.08 218.74 C 354.87 220.40 359.21 219.61 362.98 221.36 C 374.90 223.56 386.56 228.33 396.15 235.88 C 401.12 239.39 405.41 244.51 406.33 250.68 C 408.03 255.21 408.59 260.47 406.71 265.03 C 405.10 270.30 402.93 275.44 400.22 280.24 C 395.54 285.14 393.29 291.74 388.59 296.62 C 380.56 305.92 373.09 315.72 364.62 324.66 C 361.07 328.65 358.62 333.45 355.37 337.67 C 354.47 338.45 353.40 339.03 352.33 339.54 C 343.51 343.34 334.98 347.79 326.71 352.68 C 323.70 354.93 319.65 354.39 316.18 353.85 C 306.31 349.80 298.41 342.43 290.53 335.47 C 280.94 326.81 273.91 315.88 266.64 305.31 C 264.60 302.11 262.26 299.09 260.55 295.69 C 256.66 284.22 257.23 271.82 258.18 259.92 C 259.60 254.97 261.36 249.81 264.98 246.00 C 267.86 242.86 270.04 239.07 273.40 236.38 C 278.79 231.94 284.77 228.29 290.86 224.90 C 292.29 224.04 293.93 223.68 295.52 223.22 C 295.54 220.18 295.56 217.12 296.12 214.11 C 299.26 213.37 302.50 213.35 305.67 213.83 C 306.69 215.36 307.74 216.87 308.73 218.43 C 314.64 218.16 320.55 217.77 326.47 217.73 C 327.02 212.97 325.06 208.63 323.91 204.17 C 319.14 187.70 314.54 171.17 308.84 154.97 C 307.62 151.46 305.98 148.07 305.39 144.37 C 304.47 144.29 303.56 144.22 302.64 144.13 C 300.07 148.01 296.36 151.40 291.76 152.56 C 287.92 154.50 283.52 153.56 279.39 153.76 C 281.33 160.85 287.56 166.49 287.91 174.02 C 283.50 174.50 278.68 175.20 274.43 173.85 C 268.77 164.58 263.98 154.82 258.66 145.35 C 255.29 138.80 251.38 132.47 248.88 125.51 C 247.02 130.41 248.32 135.81 246.49 140.70 C 245.26 149.13 246.56 157.65 246.26 166.11 C 242.30 166.49 238.26 166.87 234.42 165.57 C 234.13 162.63 234.10 159.59 233.02 156.80 C 231.42 152.44 232.51 147.58 230.79 143.26 C 229.96 140.89 230.02 138.35 229.94 135.89 C 231.83 135.81 233.72 135.72 235.61 135.64 C 236.10 130.60 235.70 125.36 237.48 120.54 C 238.24 117.57 237.46 114.09 239.65 111.63 Z" />
<path fill="#010101" d=" M 335.97 113.68 C 337.60 114.02 339.78 113.58 340.59 115.44 C 344.20 119.14 345.42 124.65 343.69 129.54 C 341.26 132.56 339.26 136.22 335.89 138.27 C 335.35 130.10 335.19 121.84 335.97 113.68 Z" />
<path fill="#fafafa" d=" M 195.27 117.29 C 197.47 115.70 200.80 115.36 203.14 116.82 C 209.67 123.89 213.32 133.04 215.79 142.19 C 216.45 146.98 218.25 151.80 221.78 155.23 C 226.43 159.69 231.42 163.82 235.82 168.55 C 235.69 169.50 235.56 170.44 235.44 171.39 C 231.15 172.70 226.55 172.81 222.18 171.82 C 218.54 169.97 216.05 166.56 212.65 164.38 C 211.16 163.92 210.13 165.23 209.05 165.99 C 205.06 169.21 200.79 172.26 195.86 173.82 C 190.11 174.52 184.23 174.37 178.52 173.53 C 176.81 172.27 174.11 171.39 173.96 168.93 C 172.91 162.05 173.69 155.06 174.52 148.21 C 176.02 145.07 175.82 141.56 176.43 138.22 C 178.04 133.87 179.49 129.24 182.93 125.94 C 186.27 122.06 191.05 120.02 195.27 117.29 Z" />
<path fill="#010101" d=" M 418.63 115.88 C 422.75 121.59 426.33 127.94 427.82 134.86 C 427.99 142.10 429.55 150.99 423.00 156.05 C 420.41 159.56 413.80 157.50 414.05 153.02 C 414.07 147.44 413.61 141.78 414.69 136.28 C 416.37 132.65 415.56 128.51 416.85 124.78 C 417.92 121.93 417.99 118.84 418.63 115.88 Z" />
<path fill="#010101" d=" M 286.22 145.96 C 285.19 137.71 285.86 128.78 290.90 121.88 C 293.11 124.12 296.16 126.41 295.76 129.95 C 296.44 135.99 292.52 141.00 289.51 145.81 C 288.41 145.85 287.31 145.90 286.22 145.96 Z" />
<path fill="#010101" d=" M 185.56 146.97 C 185.97 139.88 189.17 133.29 192.97 127.40 C 193.79 128.49 194.61 129.57 195.36 130.70 C 197.55 137.02 200.16 143.19 202.30 149.54 C 202.90 151.28 204.14 152.93 203.78 154.88 C 202.02 160.23 197.75 164.20 193.36 167.50 C 191.16 168.48 188.69 168.14 186.36 168.11 C 185.64 167.24 184.89 166.40 184.12 165.59 C 184.12 159.38 183.33 152.88 185.56 146.97 Z" />
<path fill="#fafafa" d=" M 545.81 148.11 C 552.02 146.97 558.24 148.70 563.88 151.09 C 567.94 153.67 569.48 158.44 571.48 162.56 C 575.01 171.19 577.72 180.24 578.45 189.55 C 581.39 197.74 578.61 206.85 581.45 215.06 C 582.06 223.05 582.02 231.08 582.60 239.07 C 585.24 246.61 582.94 254.92 585.59 262.45 C 586.45 268.35 585.30 274.55 587.32 280.25 C 588.15 285.50 587.79 290.86 588.37 296.15 C 590.26 303.07 591.31 310.24 593.66 317.04 C 593.88 319.90 593.73 322.77 593.78 325.63 C 592.32 326.96 590.89 328.32 589.37 329.58 C 586.70 329.88 583.72 330.23 581.39 328.63 C 572.81 324.33 565.51 317.85 559.33 310.57 C 555.23 307.70 550.68 305.44 546.99 302.01 C 538.65 294.36 529.97 287.06 521.96 279.05 C 515.43 272.57 507.87 267.14 502.02 259.99 C 493.84 250.32 484.36 241.81 476.71 231.67 C 475.42 235.86 476.15 240.39 474.44 244.47 C 473.49 264.67 473.38 284.90 473.78 305.11 C 474.20 307.61 472.38 309.49 471.37 311.57 C 468.36 312.24 465.21 312.61 462.17 311.85 C 454.57 308.50 448.05 303.22 441.87 297.77 C 441.22 290.86 441.58 283.92 441.49 277.00 C 441.41 259.68 441.55 242.34 442.54 225.04 C 444.87 217.29 443.70 209.01 444.39 201.02 C 445.59 196.05 449.55 192.16 454.16 190.16 C 458.25 189.60 462.56 189.37 466.61 190.35 C 475.24 195.45 481.89 203.10 488.97 210.05 C 499.35 221.44 507.87 234.37 518.20 245.80 C 524.60 253.04 530.90 260.44 538.30 266.70 C 542.83 271.23 548.04 275.01 552.51 279.60 C 553.60 280.00 554.73 280.29 555.90 280.47 C 555.42 271.91 556.44 263.13 554.28 254.80 C 553.79 246.55 554.77 238.08 552.55 230.05 C 551.76 220.74 552.87 211.14 550.46 202.07 C 549.69 195.05 550.78 187.74 548.56 180.95 C 548.12 176.91 548.24 172.82 547.68 168.79 C 545.75 162.13 545.30 155.01 545.81 148.11 Z" />
<path fill="#7d7d79" d=" M 484.28 171.87 C 485.24 171.96 486.16 172.21 487.02 172.64 C 491.38 176.12 497.13 173.59 502.17 174.00 C 501.76 175.08 501.01 175.67 499.90 175.76 C 494.60 176.29 489.25 175.95 483.93 175.97 C 484.04 174.60 484.16 173.23 484.28 171.87 Z" />
<path fill="#fafafa" d=" M 130.70 200.71 C 135.28 197.86 140.47 195.56 145.98 195.91 C 150.96 196.06 156.17 195.41 160.93 197.21 C 176.94 199.57 190.78 209.86 200.61 222.37 C 204.59 227.70 209.50 232.24 213.29 237.71 C 226.35 253.31 239.70 269.26 247.55 288.25 C 248.92 295.31 248.94 302.71 247.76 309.80 C 242.14 322.58 231.56 332.22 221.43 341.46 C 199.35 359.31 172.64 370.16 145.86 378.79 C 140.38 381.07 134.53 381.93 128.90 383.64 C 123.39 384.51 118.56 380.78 114.81 377.20 C 111.71 373.83 108.40 370.60 105.83 366.79 C 113.71 363.69 122.01 361.91 129.91 358.84 C 142.73 354.47 155.15 349.04 167.53 343.55 C 183.02 335.96 196.82 325.12 208.37 312.34 C 211.77 308.40 215.33 304.48 217.71 299.81 C 218.90 293.05 219.32 285.46 215.69 279.34 C 208.30 265.05 198.17 252.41 187.80 240.20 C 182.26 232.83 175.63 226.37 169.77 219.25 C 165.42 213.47 158.32 209.12 150.89 210.03 C 147.24 210.43 143.59 210.04 139.94 209.96 C 141.32 222.96 139.76 235.99 139.71 249.02 C 139.35 254.35 139.74 259.72 139.14 265.04 C 137.45 271.57 138.27 278.36 137.80 285.01 C 137.43 291.49 138.30 298.16 136.33 304.41 C 135.98 315.62 135.96 326.85 135.44 338.06 C 134.90 340.46 134.07 342.82 133.22 345.13 C 131.68 346.62 129.26 346.44 127.38 345.81 C 120.47 341.81 115.56 335.37 110.49 329.37 C 109.95 328.01 109.99 326.52 109.97 325.09 C 110.37 308.72 110.42 292.35 110.74 275.98 C 112.98 264.50 111.65 252.69 112.57 241.07 C 114.94 233.72 113.18 225.77 114.41 218.22 C 115.87 213.83 117.55 209.28 121.20 206.22 C 124.13 203.99 127.61 202.68 130.70 200.71 Z" />
<path fill="#010101" d=" M 315.78 226.75 C 319.22 225.87 322.80 225.81 326.28 226.48 C 325.26 227.44 324.21 228.36 323.23 229.36 C 321.00 227.83 318.14 227.97 315.78 226.75 Z" />
<path fill="#010101" d=" M 342.20 227.77 C 345.41 228.06 348.80 227.86 351.78 229.33 C 355.20 230.36 358.99 229.64 362.27 231.31 C 367.96 232.45 373.97 233.63 378.66 237.33 C 382.64 240.23 387.17 242.93 389.56 247.40 C 390.19 249.92 390.10 252.55 390.57 255.10 C 392.43 260.59 392.66 266.91 390.13 272.22 C 386.95 279.76 383.83 287.42 379.35 294.30 C 375.75 300.21 370.28 304.60 365.54 309.54 C 361.62 313.68 356.80 316.78 352.53 320.52 C 342.15 329.46 330.27 336.39 319.19 344.36 C 311.37 339.15 305.14 332.06 298.46 325.54 C 292.23 319.10 285.35 313.19 280.25 305.75 C 276.16 300.69 272.52 295.18 270.40 288.99 C 269.15 280.12 269.21 271.07 270.41 262.20 C 271.91 257.82 273.44 253.22 277.09 250.10 C 283.80 242.16 292.48 235.86 302.27 232.28 C 305.71 231.07 308.29 234.31 311.54 234.78 C 311.54 235.59 311.54 236.40 311.55 237.22 C 307.37 238.53 302.36 240.81 301.42 245.56 C 300.37 245.78 299.31 246.01 298.26 246.25 C 296.96 250.04 294.30 253.12 292.16 256.44 C 291.52 260.24 288.63 264.24 290.97 268.00 C 292.93 272.54 297.43 275.15 301.47 277.62 C 303.97 279.07 307.77 276.80 308.98 280.23 C 309.79 280.20 311.39 280.15 312.20 280.13 C 312.20 279.39 312.22 277.92 312.23 277.18 C 309.93 274.91 307.94 272.33 306.12 269.67 C 303.29 259.13 310.29 246.90 321.02 244.47 C 325.67 243.98 330.36 243.93 335.04 243.63 C 339.83 243.47 344.81 242.75 349.47 244.28 C 351.61 246.44 353.94 248.63 354.74 251.68 C 359.87 253.31 366.19 247.63 363.82 242.43 C 361.42 239.57 359.28 235.99 355.77 234.46 C 350.92 234.25 346.62 231.73 341.75 231.73 C 341.90 230.41 342.05 229.09 342.20 227.77 Z" />
<path fill="#c6cd37" d=" M 419.57 265.70 C 422.24 260.16 428.04 256.55 434.04 255.78 C 434.20 258.52 435.35 261.86 433.24 264.16 C 430.15 267.46 427.70 271.30 424.54 274.55 C 417.88 280.53 414.65 289.42 407.60 295.08 C 407.87 295.60 408.41 296.65 408.68 297.17 C 419.41 301.47 429.31 307.56 439.82 312.36 C 447.32 316.27 455.21 319.38 462.74 323.23 C 465.24 324.72 468.20 324.05 470.92 323.80 C 469.81 327.69 468.00 331.40 465.71 334.72 C 458.56 342.55 450.63 349.71 444.00 358.01 C 441.30 361.66 437.50 364.21 434.00 367.03 C 432.41 368.30 430.20 367.92 428.32 368.20 C 428.08 366.35 427.84 364.50 427.57 362.65 C 420.60 361.29 416.06 355.20 409.73 352.45 C 406.27 351.04 403.24 348.84 400.12 346.84 C 392.39 342.29 384.74 337.59 377.20 332.73 C 375.75 331.63 373.14 331.02 372.15 333.03 C 369.63 336.51 366.98 339.90 363.97 342.97 C 357.69 349.70 352.47 357.42 345.58 363.57 C 343.53 364.10 341.40 364.22 339.31 364.43 C 339.27 361.09 341.63 358.50 342.16 355.29 C 343.12 351.09 346.89 348.62 349.49 345.49 C 351.49 342.91 353.27 340.17 355.37 337.67 C 358.62 333.45 361.07 328.65 364.62 324.66 C 373.09 315.72 380.56 305.92 388.59 296.62 C 393.29 291.74 395.54 285.14 400.22 280.24 C 402.86 277.42 406.24 275.53 409.42 273.40 C 411.65 271.61 412.09 268.71 412.53 266.06 C 414.87 265.84 417.22 265.79 419.57 265.70 Z" />
<path fill="#fafafa" d=" M 356.13 267.83 C 358.43 267.78 360.55 268.47 362.43 269.79 C 365.91 269.46 369.25 270.41 372.19 272.28 C 372.40 275.29 371.41 278.11 369.98 280.72 C 371.53 282.25 372.98 283.88 374.37 285.56 C 371.32 285.91 367.97 286.59 365.16 284.94 C 360.32 282.67 354.61 284.46 350.70 287.73 C 353.44 284.62 353.69 280.35 355.94 277.01 C 354.63 275.70 353.48 274.24 352.10 273.02 C 353.56 271.39 354.78 269.56 356.13 267.83 Z" />
<path fill="#fafafa" d=" M 318.35 282.42 C 320.19 283.86 321.86 285.65 324.09 286.48 C 326.78 286.04 330.02 284.34 332.43 286.37 C 334.33 288.02 337.30 288.04 338.53 290.46 C 340.85 292.64 341.00 296.72 338.23 298.62 C 337.96 301.96 338.07 305.34 338.40 308.68 C 335.62 308.36 332.85 307.84 330.69 305.94 C 326.68 303.66 323.73 308.68 319.80 307.49 C 320.96 306.59 322.12 305.70 323.28 304.80 C 321.68 304.27 320.09 303.79 318.48 303.34 C 318.38 301.71 318.23 300.08 318.05 298.47 C 318.74 298.19 320.12 297.64 320.81 297.36 C 320.61 296.61 320.21 295.10 320.00 294.35 C 319.28 293.98 317.82 293.24 317.10 292.86 C 318.59 292.18 320.11 291.55 321.65 290.96 C 320.06 288.31 317.73 285.74 318.35 282.42 Z" />
<path fill="#010101" d=" M 394.31 310.47 C 397.16 306.00 400.72 301.99 404.82 298.64 C 412.39 303.03 420.25 306.91 428.00 310.97 C 439.84 315.76 451.77 320.48 462.85 326.92 C 462.36 330.26 459.19 331.85 457.03 334.04 C 453.85 336.81 451.09 340.36 447.00 341.82 C 443.33 342.87 441.20 346.36 437.97 348.19 C 438.64 346.17 439.47 344.22 440.22 342.24 C 438.91 342.03 437.60 341.84 436.29 341.67 C 435.64 339.13 434.97 336.49 436.22 334.01 C 433.82 333.98 430.68 335.43 429.06 332.92 C 427.39 330.50 426.88 326.13 423.21 326.09 C 421.98 326.51 420.85 327.16 419.69 327.72 C 420.57 323.95 425.07 321.95 424.14 317.67 C 420.06 321.53 414.75 324.28 409.07 324.45 C 405.49 323.33 402.10 321.63 398.86 319.77 C 398.19 320.29 397.53 320.82 396.87 321.35 C 395.75 320.56 394.58 319.83 393.42 319.11 C 393.66 316.24 393.10 313.16 394.31 310.47 Z" />
<path fill="#010101" d=" M 388.27 320.31 C 389.67 319.84 390.15 320.32 389.71 321.73 C 388.31 322.19 387.83 321.71 388.27 320.31 Z" />
</svg>
